<?xml version="1.0" encoding="UTF-8" standalone="no"?>
<!DOCTYPE svg PUBLIC "-//W3C//DTD SVG 1.1//EN"
 "http://www.w3.org/Graphics/SVG/1.1/DTD/svg11.dtd">
<!-- Generated by graphviz version 2.49.3 (20211023.0002)
 -->
<!-- Title: ast Pages: 1 -->
<svg width="228pt" height="368pt"
 viewBox="0.00 0.00 228.00 368.00" xmlns="http://www.w3.org/2000/svg" xmlns:xlink="http://www.w3.org/1999/xlink">
<g id="graph0" class="graph" transform="scale(1 1) rotate(0) translate(4 364)">
<title>ast</title>
<polygon fill="white" stroke="transparent" points="-4,4 -4,-364 224,-364 224,4 -4,4"/>
<!-- N2 -->
<g id="node1" class="node">
<title>N2</title>
<polygon fill="none" stroke="black" points="56,-144 0,-144 0,-108 56,-108 56,-144"/>
<text text-anchor="middle" x="28" y="-122.3" font-family="Times,serif" font-size="14.00">voiture</text>
</g>
<!-- N4 -->
<g id="node2" class="node">
<title>N4</title>
<polygon fill="none" stroke="black" points="201,-36 147,-36 147,0 201,0 201,-36"/>
<text text-anchor="middle" x="174" y="-14.3" font-family="Times,serif" font-size="14.00">a</text>
</g>
<!-- N3 -->
<g id="node3" class="node">
<title>N3</title>
<polygon fill="none" stroke="black" points="220,-144 128,-144 128,-108 220,-108 220,-144"/>
<text text-anchor="middle" x="174" y="-122.3" font-family="Times,serif" font-size="14.00">Decl_Var_Int</text>
</g>
<!-- N3&#45;&gt;N4 -->
<g id="edge1" class="edge">
<title>N3&#45;&gt;N4</title>
<path fill="none" stroke="black" d="M174,-107.97C174,-91.38 174,-65.88 174,-46.43"/>
<polygon fill="black" stroke="black" points="177.5,-46.34 174,-36.34 170.5,-46.34 177.5,-46.34"/>
</g>
<!-- N1 -->
<g id="node4" class="node">
<title>N1</title>
<polygon fill="none" stroke="black" points="135,-252 67,-252 67,-216 135,-216 135,-252"/>
<text text-anchor="middle" x="101" y="-230.3" font-family="Times,serif" font-size="14.00">Decl_typ</text>
</g>
<!-- N1&#45;&gt;N2 -->
<g id="edge3" class="edge">
<title>N1&#45;&gt;N2</title>
<path fill="none" stroke="black" d="M89.27,-215.97C77.53,-198.92 59.31,-172.46 45.78,-152.82"/>
<polygon fill="black" stroke="black" points="48.5,-150.59 39.94,-144.34 42.73,-154.56 48.5,-150.59"/>
</g>
<!-- N1&#45;&gt;N3 -->
<g id="edge2" class="edge">
<title>N1&#45;&gt;N3</title>
<path fill="none" stroke="black" d="M112.73,-215.97C124.47,-198.92 142.69,-172.46 156.22,-152.82"/>
<polygon fill="black" stroke="black" points="159.27,-154.56 162.06,-144.34 153.5,-150.59 159.27,-154.56"/>
</g>
<!-- N0 -->
<g id="node5" class="node">
<title>N0</title>
<polygon fill="none" stroke="black" points="129,-360 73,-360 73,-324 129,-324 129,-360"/>
<text text-anchor="middle" x="101" y="-338.3" font-family="Times,serif" font-size="14.00">Fichier</text>
</g>
<!-- N0&#45;&gt;N1 -->
<g id="edge4" class="edge">
<title>N0&#45;&gt;N1</title>
<path fill="none" stroke="black" d="M101,-323.97C101,-307.38 101,-281.88 101,-262.43"/>
<polygon fill="black" stroke="black" points="104.5,-262.34 101,-252.34 97.5,-262.34 104.5,-262.34"/>
</g>
</g>
</svg>
