<?xml version="1.0" encoding="UTF-8" standalone="no"?>
<!DOCTYPE svg PUBLIC "-//W3C//DTD SVG 1.1//EN"
 "http://www.w3.org/Graphics/SVG/1.1/DTD/svg11.dtd">
<!-- Generated by graphviz version 2.49.3 (20211023.0002)
 -->
<!-- Title: ast Pages: 1 -->
<svg width="566pt" height="368pt"
 viewBox="0.00 0.00 566.00 368.00" xmlns="http://www.w3.org/2000/svg" xmlns:xlink="http://www.w3.org/1999/xlink">
<g id="graph0" class="graph" transform="scale(1 1) rotate(0) translate(4 364)">
<title>ast</title>
<polygon fill="white" stroke="transparent" points="-4,4 -4,-364 562,-364 562,4 -4,4"/>
<!-- N1 -->
<g id="node1" class="node">
<title>N1</title>
<polygon fill="none" stroke="black" points="231,-252 163,-252 163,-216 231,-216 231,-252"/>
<text text-anchor="middle" x="197" y="-230.3" font-family="Times,serif" font-size="14.00">Decl_typ</text>
</g>
<!-- N2 -->
<g id="node2" class="node">
<title>N2</title>
<polygon fill="none" stroke="black" points="79,-144 23,-144 23,-108 79,-108 79,-144"/>
<text text-anchor="middle" x="51" y="-122.3" font-family="Times,serif" font-size="14.00">voiture</text>
</g>
<!-- N1&#45;&gt;N2 -->
<g id="edge1" class="edge">
<title>N1&#45;&gt;N2</title>
<path fill="none" stroke="black" d="M173.54,-215.97C149.1,-198.23 110.64,-170.3 83.33,-150.47"/>
<polygon fill="black" stroke="black" points="85.03,-147.38 74.88,-144.34 80.92,-153.05 85.03,-147.38"/>
</g>
<!-- N3 -->
<g id="node3" class="node">
<title>N3</title>
<polygon fill="none" stroke="black" points="243,-144 151,-144 151,-108 243,-108 243,-144"/>
<text text-anchor="middle" x="197" y="-122.3" font-family="Times,serif" font-size="14.00">Decl_Var_Int</text>
</g>
<!-- N1&#45;&gt;N3 -->
<g id="edge5" class="edge">
<title>N1&#45;&gt;N3</title>
<path fill="none" stroke="black" d="M197,-215.97C197,-199.38 197,-173.88 197,-154.43"/>
<polygon fill="black" stroke="black" points="200.5,-154.34 197,-144.34 193.5,-154.34 200.5,-154.34"/>
</g>
<!-- N7 -->
<g id="node7" class="node">
<title>N7</title>
<polygon fill="none" stroke="black" points="451,-144 359,-144 359,-108 451,-108 451,-144"/>
<text text-anchor="middle" x="405" y="-122.3" font-family="Times,serif" font-size="14.00">Decl_Var_Int</text>
</g>
<!-- N1&#45;&gt;N7 -->
<g id="edge8" class="edge">
<title>N1&#45;&gt;N7</title>
<path fill="none" stroke="black" d="M230.42,-215.97C266.25,-197.71 323.23,-168.67 362.29,-148.76"/>
<polygon fill="black" stroke="black" points="364,-151.82 371.32,-144.16 360.82,-145.59 364,-151.82"/>
</g>
<!-- N4 -->
<g id="node4" class="node">
<title>N4</title>
<polygon fill="none" stroke="black" points="54,-36 0,-36 0,0 54,0 54,-36"/>
<text text-anchor="middle" x="27" y="-14.3" font-family="Times,serif" font-size="14.00">a</text>
</g>
<!-- N3&#45;&gt;N4 -->
<g id="edge2" class="edge">
<title>N3&#45;&gt;N4</title>
<path fill="none" stroke="black" d="M169.69,-107.97C140.69,-89.89 94.73,-61.23 62.84,-41.35"/>
<polygon fill="black" stroke="black" points="64.58,-38.31 54.25,-35.99 60.88,-44.25 64.58,-38.31"/>
</g>
<!-- N5 -->
<g id="node5" class="node">
<title>N5</title>
<polygon fill="none" stroke="black" points="180,-36 126,-36 126,0 180,0 180,-36"/>
<text text-anchor="middle" x="153" y="-14.3" font-family="Times,serif" font-size="14.00">b</text>
</g>
<!-- N3&#45;&gt;N5 -->
<g id="edge3" class="edge">
<title>N3&#45;&gt;N5</title>
<path fill="none" stroke="black" d="M189.93,-107.97C182.95,-91.15 172.17,-65.17 164.05,-45.62"/>
<polygon fill="black" stroke="black" points="167.26,-44.23 160.2,-36.34 160.8,-46.92 167.26,-44.23"/>
</g>
<!-- N6 -->
<g id="node6" class="node">
<title>N6</title>
<polygon fill="none" stroke="black" points="306,-36 252,-36 252,0 306,0 306,-36"/>
<text text-anchor="middle" x="279" y="-14.3" font-family="Times,serif" font-size="14.00">c</text>
</g>
<!-- N3&#45;&gt;N6 -->
<g id="edge4" class="edge">
<title>N3&#45;&gt;N6</title>
<path fill="none" stroke="black" d="M210.17,-107.97C223.48,-90.76 244.2,-63.98 259.43,-44.29"/>
<polygon fill="black" stroke="black" points="262.24,-46.39 265.59,-36.34 256.7,-42.11 262.24,-46.39"/>
</g>
<!-- N8 -->
<g id="node8" class="node">
<title>N8</title>
<polygon fill="none" stroke="black" points="432,-36 378,-36 378,0 432,0 432,-36"/>
<text text-anchor="middle" x="405" y="-14.3" font-family="Times,serif" font-size="14.00">x</text>
</g>
<!-- N7&#45;&gt;N8 -->
<g id="edge6" class="edge">
<title>N7&#45;&gt;N8</title>
<path fill="none" stroke="black" d="M405,-107.97C405,-91.38 405,-65.88 405,-46.43"/>
<polygon fill="black" stroke="black" points="408.5,-46.34 405,-36.34 401.5,-46.34 408.5,-46.34"/>
</g>
<!-- N9 -->
<g id="node9" class="node">
<title>N9</title>
<polygon fill="none" stroke="black" points="558,-36 504,-36 504,0 558,0 558,-36"/>
<text text-anchor="middle" x="531" y="-14.3" font-family="Times,serif" font-size="14.00">y</text>
</g>
<!-- N7&#45;&gt;N9 -->
<g id="edge7" class="edge">
<title>N7&#45;&gt;N9</title>
<path fill="none" stroke="black" d="M425.24,-107.97C446.15,-90.38 478.96,-62.78 502.49,-42.99"/>
<polygon fill="black" stroke="black" points="504.99,-45.46 510.39,-36.34 500.48,-40.1 504.99,-45.46"/>
</g>
<!-- N0 -->
<g id="node10" class="node">
<title>N0</title>
<polygon fill="none" stroke="black" points="225,-360 169,-360 169,-324 225,-324 225,-360"/>
<text text-anchor="middle" x="197" y="-338.3" font-family="Times,serif" font-size="14.00">Fichier</text>
</g>
<!-- N0&#45;&gt;N1 -->
<g id="edge9" class="edge">
<title>N0&#45;&gt;N1</title>
<path fill="none" stroke="black" d="M197,-323.97C197,-307.38 197,-281.88 197,-262.43"/>
<polygon fill="black" stroke="black" points="200.5,-262.34 197,-252.34 193.5,-262.34 200.5,-262.34"/>
</g>
</g>
</svg>
