<?xml version="1.0" encoding="UTF-8" standalone="no"?>
<!DOCTYPE svg PUBLIC "-//W3C//DTD SVG 1.1//EN"
 "http://www.w3.org/Graphics/SVG/1.1/DTD/svg11.dtd">
<!-- Generated by graphviz version 2.49.3 (20211023.0002)
 -->
<!-- Title: ast Pages: 1 -->
<svg width="1529pt" height="800pt"
 viewBox="0.00 0.00 1528.50 800.00" xmlns="http://www.w3.org/2000/svg" xmlns:xlink="http://www.w3.org/1999/xlink">
<g id="graph0" class="graph" transform="scale(1 1) rotate(0) translate(4 796)">
<title>ast</title>
<polygon fill="white" stroke="transparent" points="-4,4 -4,-796 1524.5,-796 1524.5,4 -4,4"/>
<!-- N0 -->
<g id="node1" class="node">
<title>N0</title>
<polygon fill="none" stroke="black" points="430.5,-792 374.5,-792 374.5,-756 430.5,-756 430.5,-792"/>
<text text-anchor="middle" x="402.5" y="-770.3" font-family="Times,serif" font-size="14.00">Fichier</text>
</g>
<!-- N1 -->
<g id="node2" class="node">
<title>N1</title>
<polygon fill="none" stroke="black" points="211.5,-684 143.5,-684 143.5,-648 211.5,-648 211.5,-684"/>
<text text-anchor="middle" x="177.5" y="-662.3" font-family="Times,serif" font-size="14.00">Decl_typ</text>
</g>
<!-- N0&#45;&gt;N1 -->
<g id="edge4" class="edge">
<title>N0&#45;&gt;N1</title>
<path fill="none" stroke="black" d="M374.46,-759.79C335.97,-741.65 266.38,-708.87 221.07,-687.53"/>
<polygon fill="black" stroke="black" points="222.33,-684.25 211.79,-683.16 219.35,-690.58 222.33,-684.25"/>
</g>
<!-- N5 -->
<g id="node6" class="node">
<title>N5</title>
<polygon fill="none" stroke="black" points="436.5,-684 368.5,-684 368.5,-648 436.5,-648 436.5,-684"/>
<text text-anchor="middle" x="402.5" y="-662.3" font-family="Times,serif" font-size="14.00">Decl_typ</text>
</g>
<!-- N0&#45;&gt;N5 -->
<g id="edge10" class="edge">
<title>N0&#45;&gt;N5</title>
<path fill="none" stroke="black" d="M402.5,-755.97C402.5,-739.38 402.5,-713.88 402.5,-694.43"/>
<polygon fill="black" stroke="black" points="406,-694.34 402.5,-684.34 399,-694.34 406,-694.34"/>
</g>
<!-- N11 -->
<g id="node12" class="node">
<title>N11</title>
<polygon fill="none" stroke="black" points="800.5,-684 672.5,-684 672.5,-648 800.5,-648 800.5,-684"/>
<text text-anchor="middle" x="736.5" y="-662.3" font-family="Times,serif" font-size="14.00">Decl_fct_int_param</text>
</g>
<!-- N0&#45;&gt;N11 -->
<g id="edge33" class="edge">
<title>N0&#45;&gt;N11</title>
<path fill="none" stroke="black" d="M430.69,-764.05C483.9,-747.17 600.31,-710.22 673.17,-687.1"/>
<polygon fill="black" stroke="black" points="674.24,-690.43 682.71,-684.07 672.12,-683.76 674.24,-690.43"/>
</g>
<!-- N2 -->
<g id="node3" class="node">
<title>N2</title>
<polygon fill="none" stroke="black" points="59,-576 0,-576 0,-540 59,-540 59,-576"/>
<text text-anchor="middle" x="29.5" y="-554.3" font-family="Times,serif" font-size="14.00">nombre</text>
</g>
<!-- N1&#45;&gt;N2 -->
<g id="edge1" class="edge">
<title>N1&#45;&gt;N2</title>
<path fill="none" stroke="black" d="M153.72,-647.97C128.84,-630.15 89.62,-602.06 61.91,-582.21"/>
<polygon fill="black" stroke="black" points="63.88,-579.32 53.71,-576.34 59.8,-585.01 63.88,-579.32"/>
</g>
<!-- N3 -->
<g id="node4" class="node">
<title>N3</title>
<polygon fill="none" stroke="black" points="223.5,-576 131.5,-576 131.5,-540 223.5,-540 223.5,-576"/>
<text text-anchor="middle" x="177.5" y="-554.3" font-family="Times,serif" font-size="14.00">Decl_Var_Int</text>
</g>
<!-- N1&#45;&gt;N3 -->
<g id="edge3" class="edge">
<title>N1&#45;&gt;N3</title>
<path fill="none" stroke="black" d="M177.5,-647.97C177.5,-631.38 177.5,-605.88 177.5,-586.43"/>
<polygon fill="black" stroke="black" points="181,-586.34 177.5,-576.34 174,-586.34 181,-586.34"/>
</g>
<!-- N4 -->
<g id="node5" class="node">
<title>N4</title>
<polygon fill="none" stroke="black" points="204.5,-468 150.5,-468 150.5,-432 204.5,-432 204.5,-468"/>
<text text-anchor="middle" x="177.5" y="-446.3" font-family="Times,serif" font-size="14.00">val</text>
</g>
<!-- N3&#45;&gt;N4 -->
<g id="edge2" class="edge">
<title>N3&#45;&gt;N4</title>
<path fill="none" stroke="black" d="M177.5,-539.97C177.5,-523.38 177.5,-497.88 177.5,-478.43"/>
<polygon fill="black" stroke="black" points="181,-478.34 177.5,-468.34 174,-478.34 181,-478.34"/>
</g>
<!-- N6 -->
<g id="node7" class="node">
<title>N6</title>
<polygon fill="none" stroke="black" points="353,-576 296,-576 296,-540 353,-540 353,-576"/>
<text text-anchor="middle" x="324.5" y="-554.3" font-family="Times,serif" font-size="14.00">somme</text>
</g>
<!-- N5&#45;&gt;N6 -->
<g id="edge5" class="edge">
<title>N5&#45;&gt;N6</title>
<path fill="none" stroke="black" d="M389.97,-647.97C377.36,-630.84 357.78,-604.22 343.31,-584.56"/>
<polygon fill="black" stroke="black" points="346.01,-582.32 337.26,-576.34 340.37,-586.47 346.01,-582.32"/>
</g>
<!-- N7 -->
<g id="node8" class="node">
<title>N7</title>
<polygon fill="none" stroke="black" points="535.5,-576 425.5,-576 425.5,-540 535.5,-540 535.5,-576"/>
<text text-anchor="middle" x="480.5" y="-554.3" font-family="Times,serif" font-size="14.00">Decl_Var_Struct</text>
</g>
<!-- N5&#45;&gt;N7 -->
<g id="edge9" class="edge">
<title>N5&#45;&gt;N7</title>
<path fill="none" stroke="black" d="M415.03,-647.97C427.64,-630.84 447.22,-604.22 461.69,-584.56"/>
<polygon fill="black" stroke="black" points="464.63,-586.47 467.74,-576.34 458.99,-582.32 464.63,-586.47"/>
</g>
<!-- N8 -->
<g id="node9" class="node">
<title>N8</title>
<polygon fill="none" stroke="black" points="358,-468 299,-468 299,-432 358,-432 358,-468"/>
<text text-anchor="middle" x="328.5" y="-446.3" font-family="Times,serif" font-size="14.00">nombre</text>
</g>
<!-- N7&#45;&gt;N8 -->
<g id="edge6" class="edge">
<title>N7&#45;&gt;N8</title>
<path fill="none" stroke="black" d="M456.08,-539.97C430.45,-522.1 390,-493.89 361.53,-474.04"/>
<polygon fill="black" stroke="black" points="363.32,-471.01 353.11,-468.16 359.31,-476.76 363.32,-471.01"/>
</g>
<!-- N9 -->
<g id="node10" class="node">
<title>N9</title>
<polygon fill="none" stroke="black" points="484.5,-468 430.5,-468 430.5,-432 484.5,-432 484.5,-468"/>
<text text-anchor="middle" x="457.5" y="-446.3" font-family="Times,serif" font-size="14.00">left</text>
</g>
<!-- N7&#45;&gt;N9 -->
<g id="edge7" class="edge">
<title>N7&#45;&gt;N9</title>
<path fill="none" stroke="black" d="M476.8,-539.97C473.19,-523.3 467.62,-497.65 463.39,-478.16"/>
<polygon fill="black" stroke="black" points="466.8,-477.37 461.26,-468.34 459.96,-478.86 466.8,-477.37"/>
</g>
<!-- N10 -->
<g id="node11" class="node">
<title>N10</title>
<polygon fill="none" stroke="black" points="610.5,-468 556.5,-468 556.5,-432 610.5,-432 610.5,-468"/>
<text text-anchor="middle" x="583.5" y="-446.3" font-family="Times,serif" font-size="14.00">right</text>
</g>
<!-- N7&#45;&gt;N10 -->
<g id="edge8" class="edge">
<title>N7&#45;&gt;N10</title>
<path fill="none" stroke="black" d="M497.05,-539.97C513.92,-522.61 540.26,-495.5 559.43,-475.77"/>
<polygon fill="black" stroke="black" points="562.19,-477.95 566.65,-468.34 557.17,-473.07 562.19,-477.95"/>
</g>
<!-- N12 -->
<g id="node13" class="node">
<title>N12</title>
<polygon fill="none" stroke="black" points="691.5,-576 637.5,-576 637.5,-540 691.5,-540 691.5,-576"/>
<text text-anchor="middle" x="664.5" y="-554.3" font-family="Times,serif" font-size="14.00">result</text>
</g>
<!-- N11&#45;&gt;N12 -->
<g id="edge11" class="edge">
<title>N11&#45;&gt;N12</title>
<path fill="none" stroke="black" d="M724.93,-647.97C713.35,-630.92 695.38,-604.46 682.04,-584.82"/>
<polygon fill="black" stroke="black" points="684.79,-582.65 676.28,-576.34 679,-586.58 684.79,-582.65"/>
</g>
<!-- N13 -->
<g id="node14" class="node">
<title>N13</title>
<polygon fill="none" stroke="black" points="853.5,-576 763.5,-576 763.5,-540 853.5,-540 853.5,-576"/>
<text text-anchor="middle" x="808.5" y="-554.3" font-family="Times,serif" font-size="14.00">Param_struct</text>
</g>
<!-- N11&#45;&gt;N13 -->
<g id="edge14" class="edge">
<title>N11&#45;&gt;N13</title>
<path fill="none" stroke="black" d="M748.07,-647.97C759.65,-630.92 777.62,-604.46 790.96,-584.82"/>
<polygon fill="black" stroke="black" points="794,-586.58 796.72,-576.34 788.21,-582.65 794,-586.58"/>
</g>
<!-- N16 -->
<g id="node17" class="node">
<title>N16</title>
<polygon fill="none" stroke="black" points="1083.5,-576 1029.5,-576 1029.5,-540 1083.5,-540 1083.5,-576"/>
<text text-anchor="middle" x="1056.5" y="-554.3" font-family="Times,serif" font-size="14.00">Bloc</text>
</g>
<!-- N11&#45;&gt;N16 -->
<g id="edge32" class="edge">
<title>N11&#45;&gt;N16</title>
<path fill="none" stroke="black" d="M787.91,-647.97C852.75,-626.49 962.62,-590.1 1019.66,-571.2"/>
<polygon fill="black" stroke="black" points="1020.95,-574.46 1029.34,-568 1018.75,-567.82 1020.95,-574.46"/>
</g>
<!-- N14 -->
<g id="node15" class="node">
<title>N14</title>
<polygon fill="none" stroke="black" points="740,-468 683,-468 683,-432 740,-432 740,-468"/>
<text text-anchor="middle" x="711.5" y="-446.3" font-family="Times,serif" font-size="14.00">somme</text>
</g>
<!-- N13&#45;&gt;N14 -->
<g id="edge12" class="edge">
<title>N13&#45;&gt;N14</title>
<path fill="none" stroke="black" d="M792.92,-539.97C777.03,-522.61 752.22,-495.5 734.17,-475.77"/>
<polygon fill="black" stroke="black" points="736.7,-473.36 727.37,-468.34 731.54,-478.08 736.7,-473.36"/>
</g>
<!-- N15 -->
<g id="node16" class="node">
<title>N15</title>
<polygon fill="none" stroke="black" points="866.5,-468 812.5,-468 812.5,-432 866.5,-432 866.5,-468"/>
<text text-anchor="middle" x="839.5" y="-446.3" font-family="Times,serif" font-size="14.00">s</text>
</g>
<!-- N13&#45;&gt;N15 -->
<g id="edge13" class="edge">
<title>N13&#45;&gt;N15</title>
<path fill="none" stroke="black" d="M813.48,-539.97C818.36,-523.3 825.86,-497.65 831.56,-478.16"/>
<polygon fill="black" stroke="black" points="834.98,-478.92 834.43,-468.34 828.26,-476.96 834.98,-478.92"/>
</g>
<!-- N17 -->
<g id="node18" class="node">
<title>N17</title>
<polygon fill="none" stroke="black" points="1030.5,-468 938.5,-468 938.5,-432 1030.5,-432 1030.5,-468"/>
<text text-anchor="middle" x="984.5" y="-446.3" font-family="Times,serif" font-size="14.00">Decl_Var_Int</text>
</g>
<!-- N16&#45;&gt;N17 -->
<g id="edge16" class="edge">
<title>N16&#45;&gt;N17</title>
<path fill="none" stroke="black" d="M1044.93,-539.97C1033.35,-522.92 1015.38,-496.46 1002.04,-476.82"/>
<polygon fill="black" stroke="black" points="1004.79,-474.65 996.28,-468.34 999,-478.58 1004.79,-474.65"/>
</g>
<!-- N19 -->
<g id="node20" class="node">
<title>N19</title>
<polygon fill="none" stroke="black" points="1156.5,-468 1102.5,-468 1102.5,-432 1156.5,-432 1156.5,-468"/>
<text text-anchor="middle" x="1129.5" y="-446.3" font-family="Times,serif" font-size="14.00">=</text>
</g>
<!-- N16&#45;&gt;N19 -->
<g id="edge29" class="edge">
<title>N16&#45;&gt;N19</title>
<path fill="none" stroke="black" d="M1068.23,-539.97C1079.97,-522.92 1098.19,-496.46 1111.72,-476.82"/>
<polygon fill="black" stroke="black" points="1114.77,-478.56 1117.56,-468.34 1109,-474.59 1114.77,-478.56"/>
</g>
<!-- N32 -->
<g id="node33" class="node">
<title>N32</title>
<polygon fill="none" stroke="black" points="1337,-468 1282,-468 1282,-432 1337,-432 1337,-468"/>
<text text-anchor="middle" x="1309.5" y="-446.3" font-family="Times,serif" font-size="14.00">Return</text>
</g>
<!-- N16&#45;&gt;N32 -->
<g id="edge31" class="edge">
<title>N16&#45;&gt;N32</title>
<path fill="none" stroke="black" d="M1083.58,-545.66C1129.08,-526.59 1220.97,-488.09 1272.43,-466.53"/>
<polygon fill="black" stroke="black" points="1273.98,-469.68 1281.85,-462.58 1271.28,-463.22 1273.98,-469.68"/>
</g>
<!-- N18 -->
<g id="node19" class="node">
<title>N18</title>
<polygon fill="none" stroke="black" points="984.5,-360 930.5,-360 930.5,-324 984.5,-324 984.5,-360"/>
<text text-anchor="middle" x="957.5" y="-338.3" font-family="Times,serif" font-size="14.00">val</text>
</g>
<!-- N17&#45;&gt;N18 -->
<g id="edge15" class="edge">
<title>N17&#45;&gt;N18</title>
<path fill="none" stroke="black" d="M980.16,-431.97C975.92,-415.3 969.38,-389.65 964.42,-370.16"/>
<polygon fill="black" stroke="black" points="967.78,-369.17 961.92,-360.34 960.99,-370.9 967.78,-369.17"/>
</g>
<!-- N20 -->
<g id="node21" class="node">
<title>N20</title>
<polygon fill="none" stroke="black" points="1110.5,-360 1056.5,-360 1056.5,-324 1110.5,-324 1110.5,-360"/>
<text text-anchor="middle" x="1083.5" y="-338.3" font-family="Times,serif" font-size="14.00">val</text>
</g>
<!-- N19&#45;&gt;N20 -->
<g id="edge17" class="edge">
<title>N19&#45;&gt;N20</title>
<path fill="none" stroke="black" d="M1122.11,-431.97C1114.81,-415.15 1103.54,-389.17 1095.05,-369.62"/>
<polygon fill="black" stroke="black" points="1098.22,-368.12 1091.03,-360.34 1091.8,-370.91 1098.22,-368.12"/>
</g>
<!-- N21 -->
<g id="node22" class="node">
<title>N21</title>
<polygon fill="none" stroke="black" points="1236.5,-360 1182.5,-360 1182.5,-324 1236.5,-324 1236.5,-360"/>
<text text-anchor="middle" x="1209.5" y="-338.3" font-family="Times,serif" font-size="14.00">+</text>
</g>
<!-- N19&#45;&gt;N21 -->
<g id="edge28" class="edge">
<title>N19&#45;&gt;N21</title>
<path fill="none" stroke="black" d="M1142.35,-431.97C1155.28,-414.84 1175.37,-388.22 1190.21,-368.56"/>
<polygon fill="black" stroke="black" points="1193.18,-370.43 1196.41,-360.34 1187.59,-366.21 1193.18,-370.43"/>
</g>
<!-- N22 -->
<g id="node23" class="node">
<title>N22</title>
<polygon fill="none" stroke="black" points="1173.5,-252 1119.5,-252 1119.5,-216 1173.5,-216 1173.5,-252"/>
<text text-anchor="middle" x="1146.5" y="-230.3" font-family="Times,serif" font-size="14.00">&#45;&gt;</text>
</g>
<!-- N21&#45;&gt;N22 -->
<g id="edge22" class="edge">
<title>N21&#45;&gt;N22</title>
<path fill="none" stroke="black" d="M1199.38,-323.97C1189.29,-306.99 1173.66,-280.7 1162.01,-261.09"/>
<polygon fill="black" stroke="black" points="1164.92,-259.15 1156.81,-252.34 1158.91,-262.73 1164.92,-259.15"/>
</g>
<!-- N27 -->
<g id="node28" class="node">
<title>N27</title>
<polygon fill="none" stroke="black" points="1299.5,-252 1245.5,-252 1245.5,-216 1299.5,-216 1299.5,-252"/>
<text text-anchor="middle" x="1272.5" y="-230.3" font-family="Times,serif" font-size="14.00">&#45;&gt;</text>
</g>
<!-- N21&#45;&gt;N27 -->
<g id="edge27" class="edge">
<title>N21&#45;&gt;N27</title>
<path fill="none" stroke="black" d="M1219.62,-323.97C1229.71,-306.99 1245.34,-280.7 1256.99,-261.09"/>
<polygon fill="black" stroke="black" points="1260.09,-262.73 1262.19,-252.34 1254.08,-259.15 1260.09,-262.73"/>
</g>
<!-- N23 -->
<g id="node24" class="node">
<title>N23</title>
<polygon fill="none" stroke="black" points="1047.5,-144 993.5,-144 993.5,-108 1047.5,-108 1047.5,-144"/>
<text text-anchor="middle" x="1020.5" y="-122.3" font-family="Times,serif" font-size="14.00">s</text>
</g>
<!-- N22&#45;&gt;N23 -->
<g id="edge18" class="edge">
<title>N22&#45;&gt;N23</title>
<path fill="none" stroke="black" d="M1126.26,-215.97C1105.35,-198.38 1072.54,-170.78 1049.01,-150.99"/>
<polygon fill="black" stroke="black" points="1051.02,-148.1 1041.11,-144.34 1046.51,-153.46 1051.02,-148.1"/>
</g>
<!-- N24 -->
<g id="node25" class="node">
<title>N24</title>
<polygon fill="none" stroke="black" points="1173.5,-144 1119.5,-144 1119.5,-108 1173.5,-108 1173.5,-144"/>
<text text-anchor="middle" x="1146.5" y="-122.3" font-family="Times,serif" font-size="14.00">&#45;&gt;</text>
</g>
<!-- N22&#45;&gt;N24 -->
<g id="edge21" class="edge">
<title>N22&#45;&gt;N24</title>
<path fill="none" stroke="black" d="M1146.5,-215.97C1146.5,-199.38 1146.5,-173.88 1146.5,-154.43"/>
<polygon fill="black" stroke="black" points="1150,-154.34 1146.5,-144.34 1143,-154.34 1150,-154.34"/>
</g>
<!-- N25 -->
<g id="node26" class="node">
<title>N25</title>
<polygon fill="none" stroke="black" points="1079.5,-36 1025.5,-36 1025.5,0 1079.5,0 1079.5,-36"/>
<text text-anchor="middle" x="1052.5" y="-14.3" font-family="Times,serif" font-size="14.00">left</text>
</g>
<!-- N24&#45;&gt;N25 -->
<g id="edge19" class="edge">
<title>N24&#45;&gt;N25</title>
<path fill="none" stroke="black" d="M1131.4,-107.97C1116.07,-90.69 1092.18,-63.74 1074.7,-44.03"/>
<polygon fill="black" stroke="black" points="1077.13,-41.5 1067.88,-36.34 1071.89,-46.14 1077.13,-41.5"/>
</g>
<!-- N26 -->
<g id="node27" class="node">
<title>N26</title>
<polygon fill="none" stroke="black" points="1205.5,-36 1151.5,-36 1151.5,0 1205.5,0 1205.5,-36"/>
<text text-anchor="middle" x="1178.5" y="-14.3" font-family="Times,serif" font-size="14.00">val</text>
</g>
<!-- N24&#45;&gt;N26 -->
<g id="edge20" class="edge">
<title>N24&#45;&gt;N26</title>
<path fill="none" stroke="black" d="M1151.64,-107.97C1156.67,-91.3 1164.42,-65.65 1170.3,-46.16"/>
<polygon fill="black" stroke="black" points="1173.73,-46.93 1173.27,-36.34 1167.02,-44.9 1173.73,-46.93"/>
</g>
<!-- N28 -->
<g id="node29" class="node">
<title>N28</title>
<polygon fill="none" stroke="black" points="1299.5,-144 1245.5,-144 1245.5,-108 1299.5,-108 1299.5,-144"/>
<text text-anchor="middle" x="1272.5" y="-122.3" font-family="Times,serif" font-size="14.00">s</text>
</g>
<!-- N27&#45;&gt;N28 -->
<g id="edge23" class="edge">
<title>N27&#45;&gt;N28</title>
<path fill="none" stroke="black" d="M1272.5,-215.97C1272.5,-199.38 1272.5,-173.88 1272.5,-154.43"/>
<polygon fill="black" stroke="black" points="1276,-154.34 1272.5,-144.34 1269,-154.34 1276,-154.34"/>
</g>
<!-- N29 -->
<g id="node30" class="node">
<title>N29</title>
<polygon fill="none" stroke="black" points="1425.5,-144 1371.5,-144 1371.5,-108 1425.5,-108 1425.5,-144"/>
<text text-anchor="middle" x="1398.5" y="-122.3" font-family="Times,serif" font-size="14.00">&#45;&gt;</text>
</g>
<!-- N27&#45;&gt;N29 -->
<g id="edge26" class="edge">
<title>N27&#45;&gt;N29</title>
<path fill="none" stroke="black" d="M1292.74,-215.97C1313.65,-198.38 1346.46,-170.78 1369.99,-150.99"/>
<polygon fill="black" stroke="black" points="1372.49,-153.46 1377.89,-144.34 1367.98,-148.1 1372.49,-153.46"/>
</g>
<!-- N30 -->
<g id="node31" class="node">
<title>N30</title>
<polygon fill="none" stroke="black" points="1394.5,-36 1340.5,-36 1340.5,0 1394.5,0 1394.5,-36"/>
<text text-anchor="middle" x="1367.5" y="-14.3" font-family="Times,serif" font-size="14.00">right</text>
</g>
<!-- N29&#45;&gt;N30 -->
<g id="edge24" class="edge">
<title>N29&#45;&gt;N30</title>
<path fill="none" stroke="black" d="M1393.52,-107.97C1388.64,-91.3 1381.14,-65.65 1375.44,-46.16"/>
<polygon fill="black" stroke="black" points="1378.74,-44.96 1372.57,-36.34 1372.02,-46.92 1378.74,-44.96"/>
</g>
<!-- N31 -->
<g id="node32" class="node">
<title>N31</title>
<polygon fill="none" stroke="black" points="1520.5,-36 1466.5,-36 1466.5,0 1520.5,0 1520.5,-36"/>
<text text-anchor="middle" x="1493.5" y="-14.3" font-family="Times,serif" font-size="14.00">val</text>
</g>
<!-- N29&#45;&gt;N31 -->
<g id="edge25" class="edge">
<title>N29&#45;&gt;N31</title>
<path fill="none" stroke="black" d="M1413.76,-107.97C1429.25,-90.69 1453.4,-63.74 1471.07,-44.03"/>
<polygon fill="black" stroke="black" points="1473.89,-46.12 1477.96,-36.34 1468.68,-41.45 1473.89,-46.12"/>
</g>
<!-- N33 -->
<g id="node34" class="node">
<title>N33</title>
<polygon fill="none" stroke="black" points="1362.5,-360 1308.5,-360 1308.5,-324 1362.5,-324 1362.5,-360"/>
<text text-anchor="middle" x="1335.5" y="-338.3" font-family="Times,serif" font-size="14.00">val</text>
</g>
<!-- N32&#45;&gt;N33 -->
<g id="edge30" class="edge">
<title>N32&#45;&gt;N33</title>
<path fill="none" stroke="black" d="M1313.68,-431.97C1317.77,-415.3 1324.06,-389.65 1328.84,-370.16"/>
<polygon fill="black" stroke="black" points="1332.26,-370.89 1331.25,-360.34 1325.47,-369.22 1332.26,-370.89"/>
</g>
</g>
</svg>
