<?xml version="1.0" encoding="UTF-8" standalone="no"?>
<!DOCTYPE svg PUBLIC "-//W3C//DTD SVG 1.1//EN"
 "http://www.w3.org/Graphics/SVG/1.1/DTD/svg11.dtd">
<!-- Generated by graphviz version 2.49.3 (20211023.0002)
 -->
<!-- Title: ast Pages: 1 -->
<svg width="971pt" height="368pt"
 viewBox="0.00 0.00 971.00 368.00" xmlns="http://www.w3.org/2000/svg" xmlns:xlink="http://www.w3.org/1999/xlink">
<g id="graph0" class="graph" transform="scale(1 1) rotate(0) translate(4 364)">
<title>ast</title>
<polygon fill="white" stroke="transparent" points="-4,4 -4,-364 967,-364 967,4 -4,4"/>
<!-- N0 -->
<g id="node1" class="node">
<title>N0</title>
<polygon fill="none" stroke="black" points="193,-360 137,-360 137,-324 193,-324 193,-360"/>
<text text-anchor="middle" x="165" y="-338.3" font-family="Times,serif" font-size="14.00">Fichier</text>
</g>
<!-- N1 -->
<g id="node2" class="node">
<title>N1</title>
<polygon fill="none" stroke="black" points="129,-252 61,-252 61,-216 129,-216 129,-252"/>
<text text-anchor="middle" x="95" y="-230.3" font-family="Times,serif" font-size="14.00">Decl_typ</text>
</g>
<!-- N0&#45;&gt;N1 -->
<g id="edge2" class="edge">
<title>N0&#45;&gt;N1</title>
<path fill="none" stroke="black" d="M153.75,-323.97C142.49,-306.92 125.02,-280.46 112.05,-260.82"/>
<polygon fill="black" stroke="black" points="114.88,-258.76 106.45,-252.34 109.04,-262.61 114.88,-258.76"/>
</g>
<!-- N3 -->
<g id="node4" class="node">
<title>N3</title>
<polygon fill="none" stroke="black" points="336,-252 268,-252 268,-216 336,-216 336,-252"/>
<text text-anchor="middle" x="302" y="-230.3" font-family="Times,serif" font-size="14.00">Decl_typ</text>
</g>
<!-- N0&#45;&gt;N3 -->
<g id="edge15" class="edge">
<title>N0&#45;&gt;N3</title>
<path fill="none" stroke="black" d="M187.01,-323.97C209.94,-306.23 246.04,-278.3 271.67,-258.47"/>
<polygon fill="black" stroke="black" points="273.82,-261.23 279.59,-252.34 269.54,-255.69 273.82,-261.23"/>
</g>
<!-- N2 -->
<g id="node3" class="node">
<title>N2</title>
<polygon fill="none" stroke="black" points="54,-144 0,-144 0,-108 54,-108 54,-144"/>
<text text-anchor="middle" x="27" y="-122.3" font-family="Times,serif" font-size="14.00">vide</text>
</g>
<!-- N1&#45;&gt;N2 -->
<g id="edge1" class="edge">
<title>N1&#45;&gt;N2</title>
<path fill="none" stroke="black" d="M84.07,-215.97C73.14,-198.92 56.16,-172.46 43.57,-152.82"/>
<polygon fill="black" stroke="black" points="46.47,-150.87 38.12,-144.34 40.58,-154.65 46.47,-150.87"/>
</g>
<!-- N4 -->
<g id="node5" class="node">
<title>N4</title>
<polygon fill="none" stroke="black" points="183.5,-144 126.5,-144 126.5,-108 183.5,-108 183.5,-144"/>
<text text-anchor="middle" x="155" y="-122.3" font-family="Times,serif" font-size="14.00">maison</text>
</g>
<!-- N3&#45;&gt;N4 -->
<g id="edge3" class="edge">
<title>N3&#45;&gt;N4</title>
<path fill="none" stroke="black" d="M278.38,-215.97C253.67,-198.15 214.71,-170.06 187.19,-150.21"/>
<polygon fill="black" stroke="black" points="189.21,-147.35 179.05,-144.34 185.11,-153.03 189.21,-147.35"/>
</g>
<!-- N5 -->
<g id="node6" class="node">
<title>N5</title>
<polygon fill="none" stroke="black" points="348,-144 256,-144 256,-108 348,-108 348,-144"/>
<text text-anchor="middle" x="302" y="-122.3" font-family="Times,serif" font-size="14.00">Decl_Var_Int</text>
</g>
<!-- N3&#45;&gt;N5 -->
<g id="edge7" class="edge">
<title>N3&#45;&gt;N5</title>
<path fill="none" stroke="black" d="M302,-215.97C302,-199.38 302,-173.88 302,-154.43"/>
<polygon fill="black" stroke="black" points="305.5,-154.34 302,-144.34 298.5,-154.34 305.5,-154.34"/>
</g>
<!-- N9 -->
<g id="node10" class="node">
<title>N9</title>
<polygon fill="none" stroke="black" points="613,-144 503,-144 503,-108 613,-108 613,-144"/>
<text text-anchor="middle" x="558" y="-122.3" font-family="Times,serif" font-size="14.00">Decl_Var_Struct</text>
</g>
<!-- N3&#45;&gt;N9 -->
<g id="edge12" class="edge">
<title>N3&#45;&gt;N9</title>
<path fill="none" stroke="black" d="M336.26,-218.81C380.16,-200.64 456.63,-168.97 507.29,-148"/>
<polygon fill="black" stroke="black" points="508.85,-151.14 516.75,-144.08 506.17,-144.67 508.85,-151.14"/>
</g>
<!-- N14 -->
<g id="node15" class="node">
<title>N14</title>
<polygon fill="none" stroke="black" points="879,-144 787,-144 787,-108 879,-108 879,-144"/>
<text text-anchor="middle" x="833" y="-122.3" font-family="Times,serif" font-size="14.00">Decl_Var_Int</text>
</g>
<!-- N3&#45;&gt;N14 -->
<g id="edge14" class="edge">
<title>N3&#45;&gt;N14</title>
<path fill="none" stroke="black" d="M336.02,-226.21C425.26,-208.4 666.71,-160.2 776.86,-138.21"/>
<polygon fill="black" stroke="black" points="777.66,-141.62 786.78,-136.23 776.29,-134.75 777.66,-141.62"/>
</g>
<!-- N6 -->
<g id="node7" class="node">
<title>N6</title>
<polygon fill="none" stroke="black" points="77,-36 23,-36 23,0 77,0 77,-36"/>
<text text-anchor="middle" x="50" y="-14.3" font-family="Times,serif" font-size="14.00">a</text>
</g>
<!-- N5&#45;&gt;N6 -->
<g id="edge4" class="edge">
<title>N5&#45;&gt;N6</title>
<path fill="none" stroke="black" d="M261.51,-107.97C213.19,-87.64 133.11,-53.96 86.58,-34.39"/>
<polygon fill="black" stroke="black" points="87.76,-31.09 77.19,-30.44 85.05,-37.54 87.76,-31.09"/>
</g>
<!-- N7 -->
<g id="node8" class="node">
<title>N7</title>
<polygon fill="none" stroke="black" points="203,-36 149,-36 149,0 203,0 203,-36"/>
<text text-anchor="middle" x="176" y="-14.3" font-family="Times,serif" font-size="14.00">b</text>
</g>
<!-- N5&#45;&gt;N7 -->
<g id="edge5" class="edge">
<title>N5&#45;&gt;N7</title>
<path fill="none" stroke="black" d="M281.76,-107.97C260.85,-90.38 228.04,-62.78 204.51,-42.99"/>
<polygon fill="black" stroke="black" points="206.52,-40.1 196.61,-36.34 202.01,-45.46 206.52,-40.1"/>
</g>
<!-- N8 -->
<g id="node9" class="node">
<title>N8</title>
<polygon fill="none" stroke="black" points="329,-36 275,-36 275,0 329,0 329,-36"/>
<text text-anchor="middle" x="302" y="-14.3" font-family="Times,serif" font-size="14.00">c</text>
</g>
<!-- N5&#45;&gt;N8 -->
<g id="edge6" class="edge">
<title>N5&#45;&gt;N8</title>
<path fill="none" stroke="black" d="M302,-107.97C302,-91.38 302,-65.88 302,-46.43"/>
<polygon fill="black" stroke="black" points="305.5,-46.34 302,-36.34 298.5,-46.34 305.5,-46.34"/>
</g>
<!-- N10 -->
<g id="node11" class="node">
<title>N10</title>
<polygon fill="none" stroke="black" points="458.5,-36 401.5,-36 401.5,0 458.5,0 458.5,-36"/>
<text text-anchor="middle" x="430" y="-14.3" font-family="Times,serif" font-size="14.00">maison</text>
</g>
<!-- N9&#45;&gt;N10 -->
<g id="edge8" class="edge">
<title>N9&#45;&gt;N10</title>
<path fill="none" stroke="black" d="M537.43,-107.97C516.1,-90.3 482.58,-62.54 458.65,-42.73"/>
<polygon fill="black" stroke="black" points="460.87,-40.02 450.94,-36.34 456.41,-45.41 460.87,-40.02"/>
</g>
<!-- N11 -->
<g id="node12" class="node">
<title>N11</title>
<polygon fill="none" stroke="black" points="585,-36 531,-36 531,0 585,0 585,-36"/>
<text text-anchor="middle" x="558" y="-14.3" font-family="Times,serif" font-size="14.00">a</text>
</g>
<!-- N9&#45;&gt;N11 -->
<g id="edge9" class="edge">
<title>N9&#45;&gt;N11</title>
<path fill="none" stroke="black" d="M558,-107.97C558,-91.38 558,-65.88 558,-46.43"/>
<polygon fill="black" stroke="black" points="561.5,-46.34 558,-36.34 554.5,-46.34 561.5,-46.34"/>
</g>
<!-- N12 -->
<g id="node13" class="node">
<title>N12</title>
<polygon fill="none" stroke="black" points="711,-36 657,-36 657,0 711,0 711,-36"/>
<text text-anchor="middle" x="684" y="-14.3" font-family="Times,serif" font-size="14.00">b</text>
</g>
<!-- N9&#45;&gt;N12 -->
<g id="edge10" class="edge">
<title>N9&#45;&gt;N12</title>
<path fill="none" stroke="black" d="M578.24,-107.97C599.15,-90.38 631.96,-62.78 655.49,-42.99"/>
<polygon fill="black" stroke="black" points="657.99,-45.46 663.39,-36.34 653.48,-40.1 657.99,-45.46"/>
</g>
<!-- N13 -->
<g id="node14" class="node">
<title>N13</title>
<polygon fill="none" stroke="black" points="837,-36 783,-36 783,0 837,0 837,-36"/>
<text text-anchor="middle" x="810" y="-14.3" font-family="Times,serif" font-size="14.00">c</text>
</g>
<!-- N9&#45;&gt;N13 -->
<g id="edge11" class="edge">
<title>N9&#45;&gt;N13</title>
<path fill="none" stroke="black" d="M598.49,-107.97C646.81,-87.64 726.89,-53.96 773.42,-34.39"/>
<polygon fill="black" stroke="black" points="774.95,-37.54 782.81,-30.44 772.24,-31.09 774.95,-37.54"/>
</g>
<!-- N15 -->
<g id="node16" class="node">
<title>N15</title>
<polygon fill="none" stroke="black" points="963,-36 909,-36 909,0 963,0 963,-36"/>
<text text-anchor="middle" x="936" y="-14.3" font-family="Times,serif" font-size="14.00">a</text>
</g>
<!-- N14&#45;&gt;N15 -->
<g id="edge13" class="edge">
<title>N14&#45;&gt;N15</title>
<path fill="none" stroke="black" d="M849.55,-107.97C866.42,-90.61 892.76,-63.5 911.93,-43.77"/>
<polygon fill="black" stroke="black" points="914.69,-45.95 919.15,-36.34 909.67,-41.07 914.69,-45.95"/>
</g>
</g>
</svg>
