<?xml version="1.0" encoding="UTF-8" standalone="no"?>
<!DOCTYPE svg PUBLIC "-//W3C//DTD SVG 1.1//EN"
 "http://www.w3.org/Graphics/SVG/1.1/DTD/svg11.dtd">
<!-- Generated by graphviz version 2.49.3 (20211023.0002)
 -->
<!-- Title: ast Pages: 1 -->
<svg width="954pt" height="368pt"
 viewBox="0.00 0.00 954.00 368.00" xmlns="http://www.w3.org/2000/svg" xmlns:xlink="http://www.w3.org/1999/xlink">
<g id="graph0" class="graph" transform="scale(1 1) rotate(0) translate(4 364)">
<title>ast</title>
<polygon fill="white" stroke="transparent" points="-4,4 -4,-364 950,-364 950,4 -4,4"/>
<!-- N0 -->
<g id="node1" class="node">
<title>N0</title>
<polygon fill="none" stroke="black" points="184,-360 128,-360 128,-324 184,-324 184,-360"/>
<text text-anchor="middle" x="156" y="-338.3" font-family="Times,serif" font-size="14.00">Fichier</text>
</g>
<!-- N1 -->
<g id="node2" class="node">
<title>N1</title>
<polygon fill="none" stroke="black" points="120.5,-252 49.5,-252 49.5,-216 120.5,-216 120.5,-252"/>
<text text-anchor="middle" x="85" y="-230.3" font-family="Times,serif" font-size="14.00">DefStruct</text>
</g>
<!-- N0&#45;&gt;N1 -->
<g id="edge2" class="edge">
<title>N0&#45;&gt;N1</title>
<path fill="none" stroke="black" d="M144.59,-323.97C133.17,-306.92 115.45,-280.46 102.3,-260.82"/>
<polygon fill="black" stroke="black" points="105.09,-258.7 96.61,-252.34 99.27,-262.6 105.09,-258.7"/>
</g>
<!-- N3 -->
<g id="node4" class="node">
<title>N3</title>
<polygon fill="none" stroke="black" points="320.5,-252 249.5,-252 249.5,-216 320.5,-216 320.5,-252"/>
<text text-anchor="middle" x="285" y="-230.3" font-family="Times,serif" font-size="14.00">DefStruct</text>
</g>
<!-- N0&#45;&gt;N3 -->
<g id="edge15" class="edge">
<title>N0&#45;&gt;N3</title>
<path fill="none" stroke="black" d="M176.73,-323.97C198.23,-306.3 232.01,-278.54 256.12,-258.73"/>
<polygon fill="black" stroke="black" points="258.39,-261.39 263.9,-252.34 253.95,-255.99 258.39,-261.39"/>
</g>
<!-- N2 -->
<g id="node3" class="node">
<title>N2</title>
<polygon fill="none" stroke="black" points="54,-144 0,-144 0,-108 54,-108 54,-144"/>
<text text-anchor="middle" x="27" y="-122.3" font-family="Times,serif" font-size="14.00">vide</text>
</g>
<!-- N1&#45;&gt;N2 -->
<g id="edge1" class="edge">
<title>N1&#45;&gt;N2</title>
<path fill="none" stroke="black" d="M75.68,-215.97C66.43,-199.07 52.13,-172.94 41.42,-153.36"/>
<polygon fill="black" stroke="black" points="44.36,-151.43 36.49,-144.34 38.22,-154.79 44.36,-151.43"/>
</g>
<!-- N4 -->
<g id="node5" class="node">
<title>N4</title>
<polygon fill="none" stroke="black" points="183.5,-144 126.5,-144 126.5,-108 183.5,-108 183.5,-144"/>
<text text-anchor="middle" x="155" y="-122.3" font-family="Times,serif" font-size="14.00">maison</text>
</g>
<!-- N3&#45;&gt;N4 -->
<g id="edge3" class="edge">
<title>N3&#45;&gt;N4</title>
<path fill="none" stroke="black" d="M264.11,-215.97C242.45,-198.3 208.4,-170.54 184.1,-150.73"/>
<polygon fill="black" stroke="black" points="186.23,-147.95 176.27,-144.34 181.81,-153.37 186.23,-147.95"/>
</g>
<!-- N5 -->
<g id="node6" class="node">
<title>N5</title>
<polygon fill="none" stroke="black" points="314,-144 256,-144 256,-108 314,-108 314,-144"/>
<text text-anchor="middle" x="285" y="-122.3" font-family="Times,serif" font-size="14.00">DeclInt</text>
</g>
<!-- N3&#45;&gt;N5 -->
<g id="edge7" class="edge">
<title>N3&#45;&gt;N5</title>
<path fill="none" stroke="black" d="M285,-215.97C285,-199.38 285,-173.88 285,-154.43"/>
<polygon fill="black" stroke="black" points="288.5,-154.34 285,-144.34 281.5,-154.34 288.5,-154.34"/>
</g>
<!-- N9 -->
<g id="node10" class="node">
<title>N9</title>
<polygon fill="none" stroke="black" points="579,-144 503,-144 503,-108 579,-108 579,-144"/>
<text text-anchor="middle" x="541" y="-122.3" font-family="Times,serif" font-size="14.00">DeclStruct</text>
</g>
<!-- N3&#45;&gt;N9 -->
<g id="edge12" class="edge">
<title>N3&#45;&gt;N9</title>
<path fill="none" stroke="black" d="M320.6,-218.26C365.64,-199.61 443.38,-167.42 493.46,-146.68"/>
<polygon fill="black" stroke="black" points="494.89,-149.88 502.79,-142.82 492.21,-143.41 494.89,-149.88"/>
</g>
<!-- N14 -->
<g id="node15" class="node">
<title>N14</title>
<polygon fill="none" stroke="black" points="828,-144 770,-144 770,-108 828,-108 828,-144"/>
<text text-anchor="middle" x="799" y="-122.3" font-family="Times,serif" font-size="14.00">DeclInt</text>
</g>
<!-- N3&#45;&gt;N14 -->
<g id="edge14" class="edge">
<title>N3&#45;&gt;N14</title>
<path fill="none" stroke="black" d="M320.74,-225.63C413.76,-206.45 662.92,-155.06 759.75,-135.09"/>
<polygon fill="black" stroke="black" points="760.63,-138.49 769.71,-133.04 759.21,-131.63 760.63,-138.49"/>
</g>
<!-- N6 -->
<g id="node7" class="node">
<title>N6</title>
<polygon fill="none" stroke="black" points="60,-36 6,-36 6,0 60,0 60,-36"/>
<text text-anchor="middle" x="33" y="-14.3" font-family="Times,serif" font-size="14.00">a</text>
</g>
<!-- N5&#45;&gt;N6 -->
<g id="edge4" class="edge">
<title>N5&#45;&gt;N6</title>
<path fill="none" stroke="black" d="M255.6,-112.63C209.47,-93.23 120.16,-55.66 69.82,-34.49"/>
<polygon fill="black" stroke="black" points="70.87,-31.13 60.3,-30.48 68.16,-37.59 70.87,-31.13"/>
</g>
<!-- N7 -->
<g id="node8" class="node">
<title>N7</title>
<polygon fill="none" stroke="black" points="186,-36 132,-36 132,0 186,0 186,-36"/>
<text text-anchor="middle" x="159" y="-14.3" font-family="Times,serif" font-size="14.00">b</text>
</g>
<!-- N5&#45;&gt;N7 -->
<g id="edge5" class="edge">
<title>N5&#45;&gt;N7</title>
<path fill="none" stroke="black" d="M264.76,-107.97C243.85,-90.38 211.04,-62.78 187.51,-42.99"/>
<polygon fill="black" stroke="black" points="189.52,-40.1 179.61,-36.34 185.01,-45.46 189.52,-40.1"/>
</g>
<!-- N8 -->
<g id="node9" class="node">
<title>N8</title>
<polygon fill="none" stroke="black" points="312,-36 258,-36 258,0 312,0 312,-36"/>
<text text-anchor="middle" x="285" y="-14.3" font-family="Times,serif" font-size="14.00">c</text>
</g>
<!-- N5&#45;&gt;N8 -->
<g id="edge6" class="edge">
<title>N5&#45;&gt;N8</title>
<path fill="none" stroke="black" d="M285,-107.97C285,-91.38 285,-65.88 285,-46.43"/>
<polygon fill="black" stroke="black" points="288.5,-46.34 285,-36.34 281.5,-46.34 288.5,-46.34"/>
</g>
<!-- N10 -->
<g id="node11" class="node">
<title>N10</title>
<polygon fill="none" stroke="black" points="441.5,-36 384.5,-36 384.5,0 441.5,0 441.5,-36"/>
<text text-anchor="middle" x="413" y="-14.3" font-family="Times,serif" font-size="14.00">maison</text>
</g>
<!-- N9&#45;&gt;N10 -->
<g id="edge8" class="edge">
<title>N9&#45;&gt;N10</title>
<path fill="none" stroke="black" d="M520.43,-107.97C499.1,-90.3 465.58,-62.54 441.65,-42.73"/>
<polygon fill="black" stroke="black" points="443.87,-40.02 433.94,-36.34 439.41,-45.41 443.87,-40.02"/>
</g>
<!-- N11 -->
<g id="node12" class="node">
<title>N11</title>
<polygon fill="none" stroke="black" points="568,-36 514,-36 514,0 568,0 568,-36"/>
<text text-anchor="middle" x="541" y="-14.3" font-family="Times,serif" font-size="14.00">a</text>
</g>
<!-- N9&#45;&gt;N11 -->
<g id="edge9" class="edge">
<title>N9&#45;&gt;N11</title>
<path fill="none" stroke="black" d="M541,-107.97C541,-91.38 541,-65.88 541,-46.43"/>
<polygon fill="black" stroke="black" points="544.5,-46.34 541,-36.34 537.5,-46.34 544.5,-46.34"/>
</g>
<!-- N12 -->
<g id="node13" class="node">
<title>N12</title>
<polygon fill="none" stroke="black" points="694,-36 640,-36 640,0 694,0 694,-36"/>
<text text-anchor="middle" x="667" y="-14.3" font-family="Times,serif" font-size="14.00">b</text>
</g>
<!-- N9&#45;&gt;N12 -->
<g id="edge10" class="edge">
<title>N9&#45;&gt;N12</title>
<path fill="none" stroke="black" d="M561.24,-107.97C582.15,-90.38 614.96,-62.78 638.49,-42.99"/>
<polygon fill="black" stroke="black" points="640.99,-45.46 646.39,-36.34 636.48,-40.1 640.99,-45.46"/>
</g>
<!-- N13 -->
<g id="node14" class="node">
<title>N13</title>
<polygon fill="none" stroke="black" points="820,-36 766,-36 766,0 820,0 820,-36"/>
<text text-anchor="middle" x="793" y="-14.3" font-family="Times,serif" font-size="14.00">c</text>
</g>
<!-- N9&#45;&gt;N13 -->
<g id="edge11" class="edge">
<title>N9&#45;&gt;N13</title>
<path fill="none" stroke="black" d="M579.27,-108.9C627.32,-88.69 709.16,-54.27 756.4,-34.39"/>
<polygon fill="black" stroke="black" points="757.79,-37.61 765.65,-30.5 755.08,-31.15 757.79,-37.61"/>
</g>
<!-- N15 -->
<g id="node16" class="node">
<title>N15</title>
<polygon fill="none" stroke="black" points="946,-36 892,-36 892,0 946,0 946,-36"/>
<text text-anchor="middle" x="919" y="-14.3" font-family="Times,serif" font-size="14.00">a</text>
</g>
<!-- N14&#45;&gt;N15 -->
<g id="edge13" class="edge">
<title>N14&#45;&gt;N15</title>
<path fill="none" stroke="black" d="M818.28,-107.97C838.19,-90.38 869.44,-62.78 891.84,-42.99"/>
<polygon fill="black" stroke="black" points="894.19,-45.58 899.37,-36.34 889.56,-40.34 894.19,-45.58"/>
</g>
</g>
</svg>
