<?xml version="1.0" encoding="UTF-8" standalone="no"?>
<!DOCTYPE svg PUBLIC "-//W3C//DTD SVG 1.1//EN"
 "http://www.w3.org/Graphics/SVG/1.1/DTD/svg11.dtd">
<!-- Generated by graphviz version 2.49.3 (20211023.0002)
 -->
<!-- Title: ast Pages: 1 -->
<svg width="2406pt" height="584pt"
 viewBox="0.00 0.00 2406.00 584.00" xmlns="http://www.w3.org/2000/svg" xmlns:xlink="http://www.w3.org/1999/xlink">
<g id="graph0" class="graph" transform="scale(1 1) rotate(0) translate(4 580)">
<title>ast</title>
<polygon fill="white" stroke="transparent" points="-4,4 -4,-580 2402,-580 2402,4 -4,4"/>
<!-- N0 -->
<g id="node1" class="node">
<title>N0</title>
<polygon fill="none" stroke="black" points="1114,-576 1058,-576 1058,-540 1114,-540 1114,-576"/>
<text text-anchor="middle" x="1086" y="-554.3" font-family="Times,serif" font-size="14.00">Fichier</text>
</g>
<!-- N1 -->
<g id="node2" class="node">
<title>N1</title>
<polygon fill="none" stroke="black" points="381,-468 253,-468 253,-432 381,-432 381,-468"/>
<text text-anchor="middle" x="317" y="-446.3" font-family="Times,serif" font-size="14.00">Decl_fct_int_param</text>
</g>
<!-- N0&#45;&gt;N1 -->
<g id="edge11" class="edge">
<title>N0&#45;&gt;N1</title>
<path fill="none" stroke="black" d="M1057.72,-553.1C949.1,-538.13 556.52,-484.02 391.2,-461.23"/>
<polygon fill="black" stroke="black" points="391.51,-457.74 381.12,-459.84 390.55,-464.67 391.51,-457.74"/>
</g>
<!-- N12 -->
<g id="node13" class="node">
<title>N12</title>
<polygon fill="none" stroke="black" points="955,-468 827,-468 827,-432 955,-432 955,-468"/>
<text text-anchor="middle" x="891" y="-446.3" font-family="Times,serif" font-size="14.00">Decl_fct_int_param</text>
</g>
<!-- N0&#45;&gt;N12 -->
<g id="edge25" class="edge">
<title>N0&#45;&gt;N12</title>
<path fill="none" stroke="black" d="M1057.65,-541.59C1024.44,-523.54 969.19,-493.5 931.48,-473"/>
<polygon fill="black" stroke="black" points="932.75,-469.71 922.3,-468.01 929.41,-475.86 932.75,-469.71"/>
</g>
<!-- N26 -->
<g id="node27" class="node">
<title>N26</title>
<polygon fill="none" stroke="black" points="1353.5,-468 1208.5,-468 1208.5,-432 1353.5,-432 1353.5,-468"/>
<text text-anchor="middle" x="1281" y="-446.3" font-family="Times,serif" font-size="14.00">Decl_fct_struct_param</text>
</g>
<!-- N0&#45;&gt;N26 -->
<g id="edge36" class="edge">
<title>N0&#45;&gt;N26</title>
<path fill="none" stroke="black" d="M1114.35,-541.59C1147.56,-523.54 1202.81,-493.5 1240.52,-473"/>
<polygon fill="black" stroke="black" points="1242.59,-475.86 1249.7,-468.01 1239.25,-469.71 1242.59,-475.86"/>
</g>
<!-- N37 -->
<g id="node38" class="node">
<title>N37</title>
<polygon fill="none" stroke="black" points="2015.5,-468 1870.5,-468 1870.5,-432 2015.5,-432 2015.5,-468"/>
<text text-anchor="middle" x="1943" y="-446.3" font-family="Times,serif" font-size="14.00">Decl_fct_struct_param</text>
</g>
<!-- N0&#45;&gt;N37 -->
<g id="edge46" class="edge">
<title>N0&#45;&gt;N37</title>
<path fill="none" stroke="black" d="M1114.03,-553.53C1229.88,-539.2 1674.03,-484.27 1860.17,-461.25"/>
<polygon fill="black" stroke="black" points="1860.68,-464.71 1870.18,-460.01 1859.82,-457.76 1860.68,-464.71"/>
</g>
<!-- N2 -->
<g id="node3" class="node">
<title>N2</title>
<polygon fill="none" stroke="black" points="62,-360 0,-360 0,-324 62,-324 62,-360"/>
<text text-anchor="middle" x="31" y="-338.3" font-family="Times,serif" font-size="14.00">addition</text>
</g>
<!-- N1&#45;&gt;N2 -->
<g id="edge1" class="edge">
<title>N1&#45;&gt;N2</title>
<path fill="none" stroke="black" d="M271.05,-431.97C216.01,-411.57 124.67,-377.72 71.95,-358.18"/>
<polygon fill="black" stroke="black" points="72.85,-354.78 62.26,-354.59 70.42,-361.34 72.85,-354.78"/>
</g>
<!-- N3 -->
<g id="node4" class="node">
<title>N3</title>
<polygon fill="none" stroke="black" points="208,-360 134,-360 134,-324 208,-324 208,-360"/>
<text text-anchor="middle" x="171" y="-338.3" font-family="Times,serif" font-size="14.00">Param_int</text>
</g>
<!-- N1&#45;&gt;N3 -->
<g id="edge3" class="edge">
<title>N1&#45;&gt;N3</title>
<path fill="none" stroke="black" d="M293.54,-431.97C269.1,-414.23 230.64,-386.3 203.33,-366.47"/>
<polygon fill="black" stroke="black" points="205.03,-363.38 194.88,-360.34 200.92,-369.05 205.03,-363.38"/>
</g>
<!-- N5 -->
<g id="node6" class="node">
<title>N5</title>
<polygon fill="none" stroke="black" points="354,-360 280,-360 280,-324 354,-324 354,-360"/>
<text text-anchor="middle" x="317" y="-338.3" font-family="Times,serif" font-size="14.00">Param_int</text>
</g>
<!-- N1&#45;&gt;N5 -->
<g id="edge5" class="edge">
<title>N1&#45;&gt;N5</title>
<path fill="none" stroke="black" d="M317,-431.97C317,-415.38 317,-389.88 317,-370.43"/>
<polygon fill="black" stroke="black" points="320.5,-370.34 317,-360.34 313.5,-370.34 320.5,-370.34"/>
</g>
<!-- N7 -->
<g id="node8" class="node">
<title>N7</title>
<polygon fill="none" stroke="black" points="480,-360 426,-360 426,-324 480,-324 480,-360"/>
<text text-anchor="middle" x="453" y="-338.3" font-family="Times,serif" font-size="14.00">Bloc</text>
</g>
<!-- N1&#45;&gt;N7 -->
<g id="edge10" class="edge">
<title>N1&#45;&gt;N7</title>
<path fill="none" stroke="black" d="M338.85,-431.97C361.52,-414.3 397.14,-386.54 422.56,-366.73"/>
<polygon fill="black" stroke="black" points="425.02,-369.25 430.75,-360.34 420.71,-363.73 425.02,-369.25"/>
</g>
<!-- N4 -->
<g id="node5" class="node">
<title>N4</title>
<polygon fill="none" stroke="black" points="198,-252 144,-252 144,-216 198,-216 198,-252"/>
<text text-anchor="middle" x="171" y="-230.3" font-family="Times,serif" font-size="14.00">x</text>
</g>
<!-- N3&#45;&gt;N4 -->
<g id="edge2" class="edge">
<title>N3&#45;&gt;N4</title>
<path fill="none" stroke="black" d="M171,-323.97C171,-307.38 171,-281.88 171,-262.43"/>
<polygon fill="black" stroke="black" points="174.5,-262.34 171,-252.34 167.5,-262.34 174.5,-262.34"/>
</g>
<!-- N6 -->
<g id="node7" class="node">
<title>N6</title>
<polygon fill="none" stroke="black" points="344,-252 290,-252 290,-216 344,-216 344,-252"/>
<text text-anchor="middle" x="317" y="-230.3" font-family="Times,serif" font-size="14.00">y</text>
</g>
<!-- N5&#45;&gt;N6 -->
<g id="edge4" class="edge">
<title>N5&#45;&gt;N6</title>
<path fill="none" stroke="black" d="M317,-323.97C317,-307.38 317,-281.88 317,-262.43"/>
<polygon fill="black" stroke="black" points="320.5,-262.34 317,-252.34 313.5,-262.34 320.5,-262.34"/>
</g>
<!-- N8 -->
<g id="node9" class="node">
<title>N8</title>
<polygon fill="none" stroke="black" points="480.5,-252 425.5,-252 425.5,-216 480.5,-216 480.5,-252"/>
<text text-anchor="middle" x="453" y="-230.3" font-family="Times,serif" font-size="14.00">Return</text>
</g>
<!-- N7&#45;&gt;N8 -->
<g id="edge9" class="edge">
<title>N7&#45;&gt;N8</title>
<path fill="none" stroke="black" d="M453,-323.97C453,-307.38 453,-281.88 453,-262.43"/>
<polygon fill="black" stroke="black" points="456.5,-262.34 453,-252.34 449.5,-262.34 456.5,-262.34"/>
</g>
<!-- N9 -->
<g id="node10" class="node">
<title>N9</title>
<polygon fill="none" stroke="black" points="480,-144 426,-144 426,-108 480,-108 480,-144"/>
<text text-anchor="middle" x="453" y="-122.3" font-family="Times,serif" font-size="14.00">+</text>
</g>
<!-- N8&#45;&gt;N9 -->
<g id="edge8" class="edge">
<title>N8&#45;&gt;N9</title>
<path fill="none" stroke="black" d="M453,-215.97C453,-199.38 453,-173.88 453,-154.43"/>
<polygon fill="black" stroke="black" points="456.5,-154.34 453,-144.34 449.5,-154.34 456.5,-154.34"/>
</g>
<!-- N10 -->
<g id="node11" class="node">
<title>N10</title>
<polygon fill="none" stroke="black" points="417,-36 363,-36 363,0 417,0 417,-36"/>
<text text-anchor="middle" x="390" y="-14.3" font-family="Times,serif" font-size="14.00">x</text>
</g>
<!-- N9&#45;&gt;N10 -->
<g id="edge6" class="edge">
<title>N9&#45;&gt;N10</title>
<path fill="none" stroke="black" d="M442.88,-107.97C432.79,-90.99 417.16,-64.7 405.51,-45.09"/>
<polygon fill="black" stroke="black" points="408.42,-43.15 400.31,-36.34 402.41,-46.73 408.42,-43.15"/>
</g>
<!-- N11 -->
<g id="node12" class="node">
<title>N11</title>
<polygon fill="none" stroke="black" points="543,-36 489,-36 489,0 543,0 543,-36"/>
<text text-anchor="middle" x="516" y="-14.3" font-family="Times,serif" font-size="14.00">y</text>
</g>
<!-- N9&#45;&gt;N11 -->
<g id="edge7" class="edge">
<title>N9&#45;&gt;N11</title>
<path fill="none" stroke="black" d="M463.12,-107.97C473.21,-90.99 488.84,-64.7 500.49,-45.09"/>
<polygon fill="black" stroke="black" points="503.59,-46.73 505.69,-36.34 497.58,-43.15 503.59,-46.73"/>
</g>
<!-- N13 -->
<g id="node14" class="node">
<title>N13</title>
<polygon fill="none" stroke="black" points="636,-360 552,-360 552,-324 636,-324 636,-360"/>
<text text-anchor="middle" x="594" y="-338.3" font-family="Times,serif" font-size="14.00">soustraction</text>
</g>
<!-- N12&#45;&gt;N13 -->
<g id="edge12" class="edge">
<title>N12&#45;&gt;N13</title>
<path fill="none" stroke="black" d="M843.28,-431.97C789.3,-412.7 701.66,-381.43 645.98,-361.55"/>
<polygon fill="black" stroke="black" points="646.9,-358.17 636.31,-358.1 644.55,-364.76 646.9,-358.17"/>
</g>
<!-- N14 -->
<g id="node15" class="node">
<title>N14</title>
<polygon fill="none" stroke="black" points="782,-360 708,-360 708,-324 782,-324 782,-360"/>
<text text-anchor="middle" x="745" y="-338.3" font-family="Times,serif" font-size="14.00">Param_int</text>
</g>
<!-- N12&#45;&gt;N14 -->
<g id="edge14" class="edge">
<title>N12&#45;&gt;N14</title>
<path fill="none" stroke="black" d="M867.54,-431.97C843.1,-414.23 804.64,-386.3 777.33,-366.47"/>
<polygon fill="black" stroke="black" points="779.03,-363.38 768.88,-360.34 774.92,-369.05 779.03,-363.38"/>
</g>
<!-- N16 -->
<g id="node17" class="node">
<title>N16</title>
<polygon fill="none" stroke="black" points="928,-360 854,-360 854,-324 928,-324 928,-360"/>
<text text-anchor="middle" x="891" y="-338.3" font-family="Times,serif" font-size="14.00">Param_int</text>
</g>
<!-- N12&#45;&gt;N16 -->
<g id="edge16" class="edge">
<title>N12&#45;&gt;N16</title>
<path fill="none" stroke="black" d="M891,-431.97C891,-415.38 891,-389.88 891,-370.43"/>
<polygon fill="black" stroke="black" points="894.5,-370.34 891,-360.34 887.5,-370.34 894.5,-370.34"/>
</g>
<!-- N18 -->
<g id="node19" class="node">
<title>N18</title>
<polygon fill="none" stroke="black" points="1054,-360 1000,-360 1000,-324 1054,-324 1054,-360"/>
<text text-anchor="middle" x="1027" y="-338.3" font-family="Times,serif" font-size="14.00">Bloc</text>
</g>
<!-- N12&#45;&gt;N18 -->
<g id="edge24" class="edge">
<title>N12&#45;&gt;N18</title>
<path fill="none" stroke="black" d="M912.85,-431.97C935.52,-414.3 971.14,-386.54 996.56,-366.73"/>
<polygon fill="black" stroke="black" points="999.02,-369.25 1004.75,-360.34 994.71,-363.73 999.02,-369.25"/>
</g>
<!-- N15 -->
<g id="node16" class="node">
<title>N15</title>
<polygon fill="none" stroke="black" points="772,-252 718,-252 718,-216 772,-216 772,-252"/>
<text text-anchor="middle" x="745" y="-230.3" font-family="Times,serif" font-size="14.00">x</text>
</g>
<!-- N14&#45;&gt;N15 -->
<g id="edge13" class="edge">
<title>N14&#45;&gt;N15</title>
<path fill="none" stroke="black" d="M745,-323.97C745,-307.38 745,-281.88 745,-262.43"/>
<polygon fill="black" stroke="black" points="748.5,-262.34 745,-252.34 741.5,-262.34 748.5,-262.34"/>
</g>
<!-- N17 -->
<g id="node18" class="node">
<title>N17</title>
<polygon fill="none" stroke="black" points="918,-252 864,-252 864,-216 918,-216 918,-252"/>
<text text-anchor="middle" x="891" y="-230.3" font-family="Times,serif" font-size="14.00">x</text>
</g>
<!-- N16&#45;&gt;N17 -->
<g id="edge15" class="edge">
<title>N16&#45;&gt;N17</title>
<path fill="none" stroke="black" d="M891,-323.97C891,-307.38 891,-281.88 891,-262.43"/>
<polygon fill="black" stroke="black" points="894.5,-262.34 891,-252.34 887.5,-262.34 894.5,-262.34"/>
</g>
<!-- N19 -->
<g id="node20" class="node">
<title>N19</title>
<polygon fill="none" stroke="black" points="1049,-252 995,-252 995,-216 1049,-216 1049,-252"/>
<text text-anchor="middle" x="1022" y="-230.3" font-family="Times,serif" font-size="14.00">=</text>
</g>
<!-- N18&#45;&gt;N19 -->
<g id="edge21" class="edge">
<title>N18&#45;&gt;N19</title>
<path fill="none" stroke="black" d="M1026.2,-323.97C1025.41,-307.38 1024.21,-281.88 1023.29,-262.43"/>
<polygon fill="black" stroke="black" points="1026.79,-262.16 1022.82,-252.34 1019.79,-262.49 1026.79,-262.16"/>
</g>
<!-- N24 -->
<g id="node25" class="node">
<title>N24</title>
<polygon fill="none" stroke="black" points="1176.5,-252 1121.5,-252 1121.5,-216 1176.5,-216 1176.5,-252"/>
<text text-anchor="middle" x="1149" y="-230.3" font-family="Times,serif" font-size="14.00">Return</text>
</g>
<!-- N18&#45;&gt;N24 -->
<g id="edge23" class="edge">
<title>N18&#45;&gt;N24</title>
<path fill="none" stroke="black" d="M1046.6,-323.97C1066.85,-306.38 1098.61,-278.78 1121.39,-258.99"/>
<polygon fill="black" stroke="black" points="1123.79,-261.54 1129.04,-252.34 1119.2,-256.26 1123.79,-261.54"/>
</g>
<!-- N20 -->
<g id="node21" class="node">
<title>N20</title>
<polygon fill="none" stroke="black" points="923,-144 869,-144 869,-108 923,-108 923,-144"/>
<text text-anchor="middle" x="896" y="-122.3" font-family="Times,serif" font-size="14.00">s</text>
</g>
<!-- N19&#45;&gt;N20 -->
<g id="edge17" class="edge">
<title>N19&#45;&gt;N20</title>
<path fill="none" stroke="black" d="M1001.76,-215.97C980.85,-198.38 948.04,-170.78 924.51,-150.99"/>
<polygon fill="black" stroke="black" points="926.52,-148.1 916.61,-144.34 922.01,-153.46 926.52,-148.1"/>
</g>
<!-- N21 -->
<g id="node22" class="node">
<title>N21</title>
<polygon fill="none" stroke="black" points="1049,-144 995,-144 995,-108 1049,-108 1049,-144"/>
<text text-anchor="middle" x="1022" y="-122.3" font-family="Times,serif" font-size="14.00">&#45;</text>
</g>
<!-- N19&#45;&gt;N21 -->
<g id="edge20" class="edge">
<title>N19&#45;&gt;N21</title>
<path fill="none" stroke="black" d="M1022,-215.97C1022,-199.38 1022,-173.88 1022,-154.43"/>
<polygon fill="black" stroke="black" points="1025.5,-154.34 1022,-144.34 1018.5,-154.34 1025.5,-154.34"/>
</g>
<!-- N22 -->
<g id="node23" class="node">
<title>N22</title>
<polygon fill="none" stroke="black" points="986,-36 932,-36 932,0 986,0 986,-36"/>
<text text-anchor="middle" x="959" y="-14.3" font-family="Times,serif" font-size="14.00">x</text>
</g>
<!-- N21&#45;&gt;N22 -->
<g id="edge18" class="edge">
<title>N21&#45;&gt;N22</title>
<path fill="none" stroke="black" d="M1011.88,-107.97C1001.79,-90.99 986.16,-64.7 974.51,-45.09"/>
<polygon fill="black" stroke="black" points="977.42,-43.15 969.31,-36.34 971.41,-46.73 977.42,-43.15"/>
</g>
<!-- N23 -->
<g id="node24" class="node">
<title>N23</title>
<polygon fill="none" stroke="black" points="1112,-36 1058,-36 1058,0 1112,0 1112,-36"/>
<text text-anchor="middle" x="1085" y="-14.3" font-family="Times,serif" font-size="14.00">y</text>
</g>
<!-- N21&#45;&gt;N23 -->
<g id="edge19" class="edge">
<title>N21&#45;&gt;N23</title>
<path fill="none" stroke="black" d="M1032.12,-107.97C1042.21,-90.99 1057.84,-64.7 1069.49,-45.09"/>
<polygon fill="black" stroke="black" points="1072.59,-46.73 1074.69,-36.34 1066.58,-43.15 1072.59,-46.73"/>
</g>
<!-- N25 -->
<g id="node26" class="node">
<title>N25</title>
<polygon fill="none" stroke="black" points="1176,-144 1122,-144 1122,-108 1176,-108 1176,-144"/>
<text text-anchor="middle" x="1149" y="-122.3" font-family="Times,serif" font-size="14.00">q</text>
</g>
<!-- N24&#45;&gt;N25 -->
<g id="edge22" class="edge">
<title>N24&#45;&gt;N25</title>
<path fill="none" stroke="black" d="M1149,-215.97C1149,-199.38 1149,-173.88 1149,-154.43"/>
<polygon fill="black" stroke="black" points="1152.5,-154.34 1149,-144.34 1145.5,-154.34 1152.5,-154.34"/>
</g>
<!-- N27 -->
<g id="node28" class="node">
<title>N27</title>
<polygon fill="none" stroke="black" points="1182,-360 1126,-360 1126,-324 1182,-324 1182,-360"/>
<text text-anchor="middle" x="1154" y="-338.3" font-family="Times,serif" font-size="14.00">voiture</text>
</g>
<!-- N26&#45;&gt;N27 -->
<g id="edge26" class="edge">
<title>N26&#45;&gt;N27</title>
<path fill="none" stroke="black" d="M1260.6,-431.97C1239.52,-414.38 1206.46,-386.78 1182.74,-366.99"/>
<polygon fill="black" stroke="black" points="1184.7,-364.06 1174.78,-360.34 1180.21,-369.44 1184.7,-364.06"/>
</g>
<!-- N28 -->
<g id="node29" class="node">
<title>N28</title>
<polygon fill="none" stroke="black" points="1308,-360 1254,-360 1254,-324 1308,-324 1308,-360"/>
<text text-anchor="middle" x="1281" y="-338.3" font-family="Times,serif" font-size="14.00">nom</text>
</g>
<!-- N26&#45;&gt;N28 -->
<g id="edge27" class="edge">
<title>N26&#45;&gt;N28</title>
<path fill="none" stroke="black" d="M1281,-431.97C1281,-415.38 1281,-389.88 1281,-370.43"/>
<polygon fill="black" stroke="black" points="1284.5,-370.34 1281,-360.34 1277.5,-370.34 1284.5,-370.34"/>
</g>
<!-- N29 -->
<g id="node30" class="node">
<title>N29</title>
<polygon fill="none" stroke="black" points="1454,-360 1380,-360 1380,-324 1454,-324 1454,-360"/>
<text text-anchor="middle" x="1417" y="-338.3" font-family="Times,serif" font-size="14.00">Param_int</text>
</g>
<!-- N26&#45;&gt;N29 -->
<g id="edge29" class="edge">
<title>N26&#45;&gt;N29</title>
<path fill="none" stroke="black" d="M1302.85,-431.97C1325.52,-414.3 1361.14,-386.54 1386.56,-366.73"/>
<polygon fill="black" stroke="black" points="1389.02,-369.25 1394.75,-360.34 1384.71,-363.73 1389.02,-369.25"/>
</g>
<!-- N31 -->
<g id="node32" class="node">
<title>N31</title>
<polygon fill="none" stroke="black" points="1580,-360 1526,-360 1526,-324 1580,-324 1580,-360"/>
<text text-anchor="middle" x="1553" y="-338.3" font-family="Times,serif" font-size="14.00">Bloc</text>
</g>
<!-- N26&#45;&gt;N31 -->
<g id="edge35" class="edge">
<title>N26&#45;&gt;N31</title>
<path fill="none" stroke="black" d="M1324.7,-431.97C1377.92,-411.23 1466.84,-376.58 1516.54,-357.21"/>
<polygon fill="black" stroke="black" points="1517.89,-360.44 1525.94,-353.55 1515.35,-353.92 1517.89,-360.44"/>
</g>
<!-- N30 -->
<g id="node31" class="node">
<title>N30</title>
<polygon fill="none" stroke="black" points="1435,-252 1381,-252 1381,-216 1435,-216 1435,-252"/>
<text text-anchor="middle" x="1408" y="-230.3" font-family="Times,serif" font-size="14.00">x</text>
</g>
<!-- N29&#45;&gt;N30 -->
<g id="edge28" class="edge">
<title>N29&#45;&gt;N30</title>
<path fill="none" stroke="black" d="M1415.55,-323.97C1414.15,-307.38 1411.98,-281.88 1410.33,-262.43"/>
<polygon fill="black" stroke="black" points="1413.81,-262.01 1409.47,-252.34 1406.83,-262.6 1413.81,-262.01"/>
</g>
<!-- N32 -->
<g id="node33" class="node">
<title>N32</title>
<polygon fill="none" stroke="black" points="1599,-252 1507,-252 1507,-216 1599,-216 1599,-252"/>
<text text-anchor="middle" x="1553" y="-230.3" font-family="Times,serif" font-size="14.00">Decl_Var_Int</text>
</g>
<!-- N31&#45;&gt;N32 -->
<g id="edge31" class="edge">
<title>N31&#45;&gt;N32</title>
<path fill="none" stroke="black" d="M1553,-323.97C1553,-307.38 1553,-281.88 1553,-262.43"/>
<polygon fill="black" stroke="black" points="1556.5,-262.34 1553,-252.34 1549.5,-262.34 1556.5,-262.34"/>
</g>
<!-- N34 -->
<g id="node35" class="node">
<title>N34</title>
<polygon fill="none" stroke="black" points="1781,-252 1671,-252 1671,-216 1781,-216 1781,-252"/>
<text text-anchor="middle" x="1726" y="-230.3" font-family="Times,serif" font-size="14.00">Decl_Var_Struct</text>
</g>
<!-- N31&#45;&gt;N34 -->
<g id="edge34" class="edge">
<title>N31&#45;&gt;N34</title>
<path fill="none" stroke="black" d="M1580.03,-324.44C1609.39,-306.45 1656.47,-277.6 1689.19,-257.55"/>
<polygon fill="black" stroke="black" points="1691.31,-260.36 1698.01,-252.15 1687.66,-254.39 1691.31,-260.36"/>
</g>
<!-- N33 -->
<g id="node34" class="node">
<title>N33</title>
<polygon fill="none" stroke="black" points="1592,-144 1514,-144 1514,-108 1592,-108 1592,-144"/>
<text text-anchor="middle" x="1553" y="-122.3" font-family="Times,serif" font-size="14.00">ID_voiture</text>
</g>
<!-- N32&#45;&gt;N33 -->
<g id="edge30" class="edge">
<title>N32&#45;&gt;N33</title>
<path fill="none" stroke="black" d="M1553,-215.97C1553,-199.38 1553,-173.88 1553,-154.43"/>
<polygon fill="black" stroke="black" points="1556.5,-154.34 1553,-144.34 1549.5,-154.34 1556.5,-154.34"/>
</g>
<!-- N35 -->
<g id="node36" class="node">
<title>N35</title>
<polygon fill="none" stroke="black" points="1738,-144 1680,-144 1680,-108 1738,-108 1738,-144"/>
<text text-anchor="middle" x="1709" y="-122.3" font-family="Times,serif" font-size="14.00">proprio</text>
</g>
<!-- N34&#45;&gt;N35 -->
<g id="edge32" class="edge">
<title>N34&#45;&gt;N35</title>
<path fill="none" stroke="black" d="M1723.27,-215.97C1720.61,-199.38 1716.52,-173.88 1713.4,-154.43"/>
<polygon fill="black" stroke="black" points="1716.82,-153.66 1711.78,-144.34 1709.91,-154.77 1716.82,-153.66"/>
</g>
<!-- N36 -->
<g id="node37" class="node">
<title>N36</title>
<polygon fill="none" stroke="black" points="1864,-144 1810,-144 1810,-108 1864,-108 1864,-144"/>
<text text-anchor="middle" x="1837" y="-122.3" font-family="Times,serif" font-size="14.00">p</text>
</g>
<!-- N34&#45;&gt;N36 -->
<g id="edge33" class="edge">
<title>N34&#45;&gt;N36</title>
<path fill="none" stroke="black" d="M1743.83,-215.97C1762.17,-198.46 1790.9,-171.02 1811.61,-151.25"/>
<polygon fill="black" stroke="black" points="1814.03,-153.78 1818.84,-144.34 1809.19,-148.72 1814.03,-153.78"/>
</g>
<!-- N38 -->
<g id="node39" class="node">
<title>N38</title>
<polygon fill="none" stroke="black" points="1708,-360 1652,-360 1652,-324 1708,-324 1708,-360"/>
<text text-anchor="middle" x="1680" y="-338.3" font-family="Times,serif" font-size="14.00">voiture</text>
</g>
<!-- N37&#45;&gt;N38 -->
<g id="edge37" class="edge">
<title>N37&#45;&gt;N38</title>
<path fill="none" stroke="black" d="M1900.74,-431.97C1850.21,-411.6 1766.38,-377.82 1717.87,-358.26"/>
<polygon fill="black" stroke="black" points="1718.96,-354.93 1708.37,-354.44 1716.34,-361.42 1718.96,-354.93"/>
</g>
<!-- N39 -->
<g id="node40" class="node">
<title>N39</title>
<polygon fill="none" stroke="black" points="1834,-360 1780,-360 1780,-324 1834,-324 1834,-360"/>
<text text-anchor="middle" x="1807" y="-338.3" font-family="Times,serif" font-size="14.00">w</text>
</g>
<!-- N37&#45;&gt;N39 -->
<g id="edge38" class="edge">
<title>N37&#45;&gt;N39</title>
<path fill="none" stroke="black" d="M1921.15,-431.97C1898.48,-414.3 1862.86,-386.54 1837.44,-366.73"/>
<polygon fill="black" stroke="black" points="1839.29,-363.73 1829.25,-360.34 1834.98,-369.25 1839.29,-363.73"/>
</g>
<!-- N40 -->
<g id="node41" class="node">
<title>N40</title>
<polygon fill="none" stroke="black" points="1980,-360 1906,-360 1906,-324 1980,-324 1980,-360"/>
<text text-anchor="middle" x="1943" y="-338.3" font-family="Times,serif" font-size="14.00">Param_int</text>
</g>
<!-- N37&#45;&gt;N40 -->
<g id="edge40" class="edge">
<title>N37&#45;&gt;N40</title>
<path fill="none" stroke="black" d="M1943,-431.97C1943,-415.38 1943,-389.88 1943,-370.43"/>
<polygon fill="black" stroke="black" points="1946.5,-370.34 1943,-360.34 1939.5,-370.34 1946.5,-370.34"/>
</g>
<!-- N42 -->
<g id="node43" class="node">
<title>N42</title>
<polygon fill="none" stroke="black" points="2126,-360 2052,-360 2052,-324 2126,-324 2126,-360"/>
<text text-anchor="middle" x="2089" y="-338.3" font-family="Times,serif" font-size="14.00">Param_int</text>
</g>
<!-- N37&#45;&gt;N42 -->
<g id="edge42" class="edge">
<title>N37&#45;&gt;N42</title>
<path fill="none" stroke="black" d="M1966.46,-431.97C1990.9,-414.23 2029.36,-386.3 2056.67,-366.47"/>
<polygon fill="black" stroke="black" points="2059.08,-369.05 2065.12,-360.34 2054.97,-363.38 2059.08,-369.05"/>
</g>
<!-- N44 -->
<g id="node45" class="node">
<title>N44</title>
<polygon fill="none" stroke="black" points="2272,-360 2198,-360 2198,-324 2272,-324 2272,-360"/>
<text text-anchor="middle" x="2235" y="-338.3" font-family="Times,serif" font-size="14.00">Param_int</text>
</g>
<!-- N37&#45;&gt;N44 -->
<g id="edge44" class="edge">
<title>N37&#45;&gt;N44</title>
<path fill="none" stroke="black" d="M1989.91,-431.97C2044.51,-412.15 2134.11,-379.62 2188.52,-359.87"/>
<polygon fill="black" stroke="black" points="2189.72,-363.16 2197.93,-356.46 2187.33,-356.58 2189.72,-363.16"/>
</g>
<!-- N46 -->
<g id="node47" class="node">
<title>N46</title>
<polygon fill="none" stroke="black" points="2398,-360 2344,-360 2344,-324 2398,-324 2398,-360"/>
<text text-anchor="middle" x="2371" y="-338.3" font-family="Times,serif" font-size="14.00">Bloc</text>
</g>
<!-- N37&#45;&gt;N46 -->
<g id="edge45" class="edge">
<title>N37&#45;&gt;N46</title>
<path fill="none" stroke="black" d="M2015.15,-431.95C2088.88,-414.41 2206.6,-386.04 2308,-360 2316.44,-357.83 2325.49,-355.43 2334.03,-353.14"/>
<polygon fill="black" stroke="black" points="2335.01,-356.5 2343.75,-350.51 2333.18,-349.74 2335.01,-356.5"/>
</g>
<!-- N41 -->
<g id="node42" class="node">
<title>N41</title>
<polygon fill="none" stroke="black" points="1970,-252 1916,-252 1916,-216 1970,-216 1970,-252"/>
<text text-anchor="middle" x="1943" y="-230.3" font-family="Times,serif" font-size="14.00">x</text>
</g>
<!-- N40&#45;&gt;N41 -->
<g id="edge39" class="edge">
<title>N40&#45;&gt;N41</title>
<path fill="none" stroke="black" d="M1943,-323.97C1943,-307.38 1943,-281.88 1943,-262.43"/>
<polygon fill="black" stroke="black" points="1946.5,-262.34 1943,-252.34 1939.5,-262.34 1946.5,-262.34"/>
</g>
<!-- N43 -->
<g id="node44" class="node">
<title>N43</title>
<polygon fill="none" stroke="black" points="2116,-252 2062,-252 2062,-216 2116,-216 2116,-252"/>
<text text-anchor="middle" x="2089" y="-230.3" font-family="Times,serif" font-size="14.00">y</text>
</g>
<!-- N42&#45;&gt;N43 -->
<g id="edge41" class="edge">
<title>N42&#45;&gt;N43</title>
<path fill="none" stroke="black" d="M2089,-323.97C2089,-307.38 2089,-281.88 2089,-262.43"/>
<polygon fill="black" stroke="black" points="2092.5,-262.34 2089,-252.34 2085.5,-262.34 2092.5,-262.34"/>
</g>
<!-- N45 -->
<g id="node46" class="node">
<title>N45</title>
<polygon fill="none" stroke="black" points="2262,-252 2208,-252 2208,-216 2262,-216 2262,-252"/>
<text text-anchor="middle" x="2235" y="-230.3" font-family="Times,serif" font-size="14.00">x</text>
</g>
<!-- N44&#45;&gt;N45 -->
<g id="edge43" class="edge">
<title>N44&#45;&gt;N45</title>
<path fill="none" stroke="black" d="M2235,-323.97C2235,-307.38 2235,-281.88 2235,-262.43"/>
<polygon fill="black" stroke="black" points="2238.5,-262.34 2235,-252.34 2231.5,-262.34 2238.5,-262.34"/>
</g>
</g>
</svg>
