<?xml version="1.0" encoding="UTF-8" standalone="no"?>
<!DOCTYPE svg PUBLIC "-//W3C//DTD SVG 1.1//EN"
 "http://www.w3.org/Graphics/SVG/1.1/DTD/svg11.dtd">
<!-- Generated by graphviz version 2.49.3 (20211023.0002)
 -->
<!-- Title: ast Pages: 1 -->
<svg width="440pt" height="692pt"
 viewBox="0.00 0.00 440.00 692.00" xmlns="http://www.w3.org/2000/svg" xmlns:xlink="http://www.w3.org/1999/xlink">
<g id="graph0" class="graph" transform="scale(1 1) rotate(0) translate(4 688)">
<title>ast</title>
<polygon fill="white" stroke="transparent" points="-4,4 -4,-688 436,-688 436,4 -4,4"/>
<!-- N0 -->
<g id="node1" class="node">
<title>N0</title>
<polygon fill="none" stroke="black" points="181,-684 125,-684 125,-648 181,-648 181,-684"/>
<text text-anchor="middle" x="153" y="-662.3" font-family="Times,serif" font-size="14.00">Fichier</text>
</g>
<!-- N1 -->
<g id="node2" class="node">
<title>N1</title>
<polygon fill="none" stroke="black" points="196,-576 110,-576 110,-540 196,-540 196,-576"/>
<text text-anchor="middle" x="153" y="-554.3" font-family="Times,serif" font-size="14.00">Decl_fct_int</text>
</g>
<!-- N0&#45;&gt;N1 -->
<g id="edge11" class="edge">
<title>N0&#45;&gt;N1</title>
<path fill="none" stroke="black" d="M153,-647.97C153,-631.38 153,-605.88 153,-586.43"/>
<polygon fill="black" stroke="black" points="156.5,-586.34 153,-576.34 149.5,-586.34 156.5,-586.34"/>
</g>
<!-- N2 -->
<g id="node3" class="node">
<title>N2</title>
<polygon fill="none" stroke="black" points="117,-468 63,-468 63,-432 117,-432 117,-468"/>
<text text-anchor="middle" x="90" y="-446.3" font-family="Times,serif" font-size="14.00">main</text>
</g>
<!-- N1&#45;&gt;N2 -->
<g id="edge1" class="edge">
<title>N1&#45;&gt;N2</title>
<path fill="none" stroke="black" d="M142.88,-539.97C132.79,-522.99 117.16,-496.7 105.51,-477.09"/>
<polygon fill="black" stroke="black" points="108.42,-475.15 100.31,-468.34 102.41,-478.73 108.42,-475.15"/>
</g>
<!-- N3 -->
<g id="node4" class="node">
<title>N3</title>
<polygon fill="none" stroke="black" points="243,-468 189,-468 189,-432 243,-432 243,-468"/>
<text text-anchor="middle" x="216" y="-446.3" font-family="Times,serif" font-size="14.00">Bloc</text>
</g>
<!-- N1&#45;&gt;N3 -->
<g id="edge10" class="edge">
<title>N1&#45;&gt;N3</title>
<path fill="none" stroke="black" d="M163.12,-539.97C173.21,-522.99 188.84,-496.7 200.49,-477.09"/>
<polygon fill="black" stroke="black" points="203.59,-478.73 205.69,-468.34 197.58,-475.15 203.59,-478.73"/>
</g>
<!-- N4 -->
<g id="node5" class="node">
<title>N4</title>
<polygon fill="none" stroke="black" points="243,-360 189,-360 189,-324 243,-324 243,-360"/>
<text text-anchor="middle" x="216" y="-338.3" font-family="Times,serif" font-size="14.00">&#45;</text>
</g>
<!-- N3&#45;&gt;N4 -->
<g id="edge9" class="edge">
<title>N3&#45;&gt;N4</title>
<path fill="none" stroke="black" d="M216,-431.97C216,-415.38 216,-389.88 216,-370.43"/>
<polygon fill="black" stroke="black" points="219.5,-370.34 216,-360.34 212.5,-370.34 219.5,-370.34"/>
</g>
<!-- N5 -->
<g id="node6" class="node">
<title>N5</title>
<polygon fill="none" stroke="black" points="180,-252 126,-252 126,-216 180,-216 180,-252"/>
<text text-anchor="middle" x="153" y="-230.3" font-family="Times,serif" font-size="14.00">+</text>
</g>
<!-- N4&#45;&gt;N5 -->
<g id="edge5" class="edge">
<title>N4&#45;&gt;N5</title>
<path fill="none" stroke="black" d="M205.88,-323.97C195.79,-306.99 180.16,-280.7 168.51,-261.09"/>
<polygon fill="black" stroke="black" points="171.42,-259.15 163.31,-252.34 165.41,-262.73 171.42,-259.15"/>
</g>
<!-- N9 -->
<g id="node10" class="node">
<title>N9</title>
<polygon fill="none" stroke="black" points="306,-252 252,-252 252,-216 306,-216 306,-252"/>
<text text-anchor="middle" x="279" y="-230.3" font-family="Times,serif" font-size="14.00">*</text>
</g>
<!-- N4&#45;&gt;N9 -->
<g id="edge8" class="edge">
<title>N4&#45;&gt;N9</title>
<path fill="none" stroke="black" d="M226.12,-323.97C236.21,-306.99 251.84,-280.7 263.49,-261.09"/>
<polygon fill="black" stroke="black" points="266.59,-262.73 268.69,-252.34 260.58,-259.15 266.59,-262.73"/>
</g>
<!-- N6 -->
<g id="node7" class="node">
<title>N6</title>
<polygon fill="none" stroke="black" points="54,-144 0,-144 0,-108 54,-108 54,-144"/>
<text text-anchor="middle" x="27" y="-122.3" font-family="Times,serif" font-size="14.00">5</text>
</g>
<!-- N5&#45;&gt;N6 -->
<g id="edge2" class="edge">
<title>N5&#45;&gt;N6</title>
<path fill="none" stroke="black" d="M132.76,-215.97C111.85,-198.38 79.04,-170.78 55.51,-150.99"/>
<polygon fill="black" stroke="black" points="57.52,-148.1 47.61,-144.34 53.01,-153.46 57.52,-148.1"/>
</g>
<!-- N7 -->
<g id="node8" class="node">
<title>N7</title>
<polygon fill="none" stroke="black" points="180,-144 126,-144 126,-108 180,-108 180,-144"/>
<text text-anchor="middle" x="153" y="-122.3" font-family="Times,serif" font-size="14.00">&#45;</text>
</g>
<!-- N5&#45;&gt;N7 -->
<g id="edge4" class="edge">
<title>N5&#45;&gt;N7</title>
<path fill="none" stroke="black" d="M153,-215.97C153,-199.38 153,-173.88 153,-154.43"/>
<polygon fill="black" stroke="black" points="156.5,-154.34 153,-144.34 149.5,-154.34 156.5,-154.34"/>
</g>
<!-- N8 -->
<g id="node9" class="node">
<title>N8</title>
<polygon fill="none" stroke="black" points="180,-36 126,-36 126,0 180,0 180,-36"/>
<text text-anchor="middle" x="153" y="-14.3" font-family="Times,serif" font-size="14.00">0</text>
</g>
<!-- N7&#45;&gt;N8 -->
<g id="edge3" class="edge">
<title>N7&#45;&gt;N8</title>
<path fill="none" stroke="black" d="M153,-107.97C153,-91.38 153,-65.88 153,-46.43"/>
<polygon fill="black" stroke="black" points="156.5,-46.34 153,-36.34 149.5,-46.34 156.5,-46.34"/>
</g>
<!-- N10 -->
<g id="node11" class="node">
<title>N10</title>
<polygon fill="none" stroke="black" points="306,-144 252,-144 252,-108 306,-108 306,-144"/>
<text text-anchor="middle" x="279" y="-122.3" font-family="Times,serif" font-size="14.00">3</text>
</g>
<!-- N9&#45;&gt;N10 -->
<g id="edge6" class="edge">
<title>N9&#45;&gt;N10</title>
<path fill="none" stroke="black" d="M279,-215.97C279,-199.38 279,-173.88 279,-154.43"/>
<polygon fill="black" stroke="black" points="282.5,-154.34 279,-144.34 275.5,-154.34 282.5,-154.34"/>
</g>
<!-- N11 -->
<g id="node12" class="node">
<title>N11</title>
<polygon fill="none" stroke="black" points="432,-144 378,-144 378,-108 432,-108 432,-144"/>
<text text-anchor="middle" x="405" y="-122.3" font-family="Times,serif" font-size="14.00">12</text>
</g>
<!-- N9&#45;&gt;N11 -->
<g id="edge7" class="edge">
<title>N9&#45;&gt;N11</title>
<path fill="none" stroke="black" d="M299.24,-215.97C320.15,-198.38 352.96,-170.78 376.49,-150.99"/>
<polygon fill="black" stroke="black" points="378.99,-153.46 384.39,-144.34 374.48,-148.1 378.99,-153.46"/>
</g>
</g>
</svg>
