<?xml version="1.0" encoding="UTF-8" standalone="no"?>
<!DOCTYPE svg PUBLIC "-//W3C//DTD SVG 1.1//EN"
 "http://www.w3.org/Graphics/SVG/1.1/DTD/svg11.dtd">
<!-- Generated by graphviz version 2.49.3 (20211023.0002)
 -->
<!-- Title: ast Pages: 1 -->
<svg width="314pt" height="584pt"
 viewBox="0.00 0.00 314.00 584.00" xmlns="http://www.w3.org/2000/svg" xmlns:xlink="http://www.w3.org/1999/xlink">
<g id="graph0" class="graph" transform="scale(1 1) rotate(0) translate(4 580)">
<title>ast</title>
<polygon fill="white" stroke="transparent" points="-4,4 -4,-580 310,-580 310,4 -4,4"/>
<!-- N0 -->
<g id="node1" class="node">
<title>N0</title>
<polygon fill="none" stroke="black" points="118,-576 62,-576 62,-540 118,-540 118,-576"/>
<text text-anchor="middle" x="90" y="-554.3" font-family="Times,serif" font-size="14.00">Fichier</text>
</g>
<!-- N1 -->
<g id="node2" class="node">
<title>N1</title>
<polygon fill="none" stroke="black" points="133,-468 47,-468 47,-432 133,-432 133,-468"/>
<text text-anchor="middle" x="90" y="-446.3" font-family="Times,serif" font-size="14.00">Decl_fct_int</text>
</g>
<!-- N0&#45;&gt;N1 -->
<g id="edge8" class="edge">
<title>N0&#45;&gt;N1</title>
<path fill="none" stroke="black" d="M90,-539.97C90,-523.38 90,-497.88 90,-478.43"/>
<polygon fill="black" stroke="black" points="93.5,-478.34 90,-468.34 86.5,-478.34 93.5,-478.34"/>
</g>
<!-- N2 -->
<g id="node3" class="node">
<title>N2</title>
<polygon fill="none" stroke="black" points="54,-360 0,-360 0,-324 54,-324 54,-360"/>
<text text-anchor="middle" x="27" y="-338.3" font-family="Times,serif" font-size="14.00">main</text>
</g>
<!-- N1&#45;&gt;N2 -->
<g id="edge1" class="edge">
<title>N1&#45;&gt;N2</title>
<path fill="none" stroke="black" d="M79.88,-431.97C69.79,-414.99 54.16,-388.7 42.51,-369.09"/>
<polygon fill="black" stroke="black" points="45.42,-367.15 37.31,-360.34 39.41,-370.73 45.42,-367.15"/>
</g>
<!-- N3 -->
<g id="node4" class="node">
<title>N3</title>
<polygon fill="none" stroke="black" points="180,-360 126,-360 126,-324 180,-324 180,-360"/>
<text text-anchor="middle" x="153" y="-338.3" font-family="Times,serif" font-size="14.00">Bloc</text>
</g>
<!-- N1&#45;&gt;N3 -->
<g id="edge7" class="edge">
<title>N1&#45;&gt;N3</title>
<path fill="none" stroke="black" d="M100.12,-431.97C110.21,-414.99 125.84,-388.7 137.49,-369.09"/>
<polygon fill="black" stroke="black" points="140.59,-370.73 142.69,-360.34 134.58,-367.15 140.59,-370.73"/>
</g>
<!-- N4 -->
<g id="node5" class="node">
<title>N4</title>
<polygon fill="none" stroke="black" points="180,-252 126,-252 126,-216 180,-216 180,-252"/>
<text text-anchor="middle" x="153" y="-230.3" font-family="Times,serif" font-size="14.00">+</text>
</g>
<!-- N3&#45;&gt;N4 -->
<g id="edge6" class="edge">
<title>N3&#45;&gt;N4</title>
<path fill="none" stroke="black" d="M153,-323.97C153,-307.38 153,-281.88 153,-262.43"/>
<polygon fill="black" stroke="black" points="156.5,-262.34 153,-252.34 149.5,-262.34 156.5,-262.34"/>
</g>
<!-- N5 -->
<g id="node6" class="node">
<title>N5</title>
<polygon fill="none" stroke="black" points="117,-144 63,-144 63,-108 117,-108 117,-144"/>
<text text-anchor="middle" x="90" y="-122.3" font-family="Times,serif" font-size="14.00">15</text>
</g>
<!-- N4&#45;&gt;N5 -->
<g id="edge2" class="edge">
<title>N4&#45;&gt;N5</title>
<path fill="none" stroke="black" d="M142.88,-215.97C132.79,-198.99 117.16,-172.7 105.51,-153.09"/>
<polygon fill="black" stroke="black" points="108.42,-151.15 100.31,-144.34 102.41,-154.73 108.42,-151.15"/>
</g>
<!-- N6 -->
<g id="node7" class="node">
<title>N6</title>
<polygon fill="none" stroke="black" points="243,-144 189,-144 189,-108 243,-108 243,-144"/>
<text text-anchor="middle" x="216" y="-122.3" font-family="Times,serif" font-size="14.00">*</text>
</g>
<!-- N4&#45;&gt;N6 -->
<g id="edge5" class="edge">
<title>N4&#45;&gt;N6</title>
<path fill="none" stroke="black" d="M163.12,-215.97C173.21,-198.99 188.84,-172.7 200.49,-153.09"/>
<polygon fill="black" stroke="black" points="203.59,-154.73 205.69,-144.34 197.58,-151.15 203.59,-154.73"/>
</g>
<!-- N7 -->
<g id="node8" class="node">
<title>N7</title>
<polygon fill="none" stroke="black" points="180,-36 126,-36 126,0 180,0 180,-36"/>
<text text-anchor="middle" x="153" y="-14.3" font-family="Times,serif" font-size="14.00">13</text>
</g>
<!-- N6&#45;&gt;N7 -->
<g id="edge3" class="edge">
<title>N6&#45;&gt;N7</title>
<path fill="none" stroke="black" d="M205.88,-107.97C195.79,-90.99 180.16,-64.7 168.51,-45.09"/>
<polygon fill="black" stroke="black" points="171.42,-43.15 163.31,-36.34 165.41,-46.73 171.42,-43.15"/>
</g>
<!-- N8 -->
<g id="node9" class="node">
<title>N8</title>
<polygon fill="none" stroke="black" points="306,-36 252,-36 252,0 306,0 306,-36"/>
<text text-anchor="middle" x="279" y="-14.3" font-family="Times,serif" font-size="14.00">12</text>
</g>
<!-- N6&#45;&gt;N8 -->
<g id="edge4" class="edge">
<title>N6&#45;&gt;N8</title>
<path fill="none" stroke="black" d="M226.12,-107.97C236.21,-90.99 251.84,-64.7 263.49,-45.09"/>
<polygon fill="black" stroke="black" points="266.59,-46.73 268.69,-36.34 260.58,-43.15 266.59,-46.73"/>
</g>
</g>
</svg>
