<?xml version="1.0" encoding="UTF-8" standalone="no"?>
<!DOCTYPE svg PUBLIC "-//W3C//DTD SVG 1.1//EN"
 "http://www.w3.org/Graphics/SVG/1.1/DTD/svg11.dtd">
<!-- Generated by graphviz version 2.49.3 (20211023.0002)
 -->
<!-- Title: ast Pages: 1 -->
<svg width="585pt" height="368pt"
 viewBox="0.00 0.00 585.00 368.00" xmlns="http://www.w3.org/2000/svg" xmlns:xlink="http://www.w3.org/1999/xlink">
<g id="graph0" class="graph" transform="scale(1 1) rotate(0) translate(4 364)">
<title>ast</title>
<polygon fill="white" stroke="transparent" points="-4,4 -4,-364 581,-364 581,4 -4,4"/>
<!-- N0 -->
<g id="node1" class="node">
<title>N0</title>
<polygon fill="none" stroke="black" points="200,-360 144,-360 144,-324 200,-324 200,-360"/>
<text text-anchor="middle" x="172" y="-338.3" font-family="Times,serif" font-size="14.00">Fichier</text>
</g>
<!-- N1 -->
<g id="node2" class="node">
<title>N1</title>
<polygon fill="none" stroke="black" points="206,-252 138,-252 138,-216 206,-216 206,-252"/>
<text text-anchor="middle" x="172" y="-230.3" font-family="Times,serif" font-size="14.00">Decl_typ</text>
</g>
<!-- N0&#45;&gt;N1 -->
<g id="edge9" class="edge">
<title>N0&#45;&gt;N1</title>
<path fill="none" stroke="black" d="M172,-323.97C172,-307.38 172,-281.88 172,-262.43"/>
<polygon fill="black" stroke="black" points="175.5,-262.34 172,-252.34 168.5,-262.34 175.5,-262.34"/>
</g>
<!-- N2 -->
<g id="node3" class="node">
<title>N2</title>
<polygon fill="none" stroke="black" points="54,-144 0,-144 0,-108 54,-108 54,-144"/>
<text text-anchor="middle" x="27" y="-122.3" font-family="Times,serif" font-size="14.00">node</text>
</g>
<!-- N1&#45;&gt;N2 -->
<g id="edge1" class="edge">
<title>N1&#45;&gt;N2</title>
<path fill="none" stroke="black" d="M148.7,-215.97C124.43,-198.23 86.23,-170.3 59.11,-150.47"/>
<polygon fill="black" stroke="black" points="60.86,-147.42 50.72,-144.34 56.73,-153.07 60.86,-147.42"/>
</g>
<!-- N3 -->
<g id="node4" class="node">
<title>N3</title>
<polygon fill="none" stroke="black" points="218,-144 126,-144 126,-108 218,-108 218,-144"/>
<text text-anchor="middle" x="172" y="-122.3" font-family="Times,serif" font-size="14.00">Decl_Var_Int</text>
</g>
<!-- N1&#45;&gt;N3 -->
<g id="edge4" class="edge">
<title>N1&#45;&gt;N3</title>
<path fill="none" stroke="black" d="M172,-215.97C172,-199.38 172,-173.88 172,-154.43"/>
<polygon fill="black" stroke="black" points="175.5,-154.34 172,-144.34 168.5,-154.34 175.5,-154.34"/>
</g>
<!-- N6 -->
<g id="node7" class="node">
<title>N6</title>
<polygon fill="none" stroke="black" points="439,-144 329,-144 329,-108 439,-108 439,-144"/>
<text text-anchor="middle" x="384" y="-122.3" font-family="Times,serif" font-size="14.00">Decl_Var_Struct</text>
</g>
<!-- N1&#45;&gt;N6 -->
<g id="edge8" class="edge">
<title>N1&#45;&gt;N6</title>
<path fill="none" stroke="black" d="M206.06,-215.97C242.66,-197.67 300.91,-168.55 340.72,-148.64"/>
<polygon fill="black" stroke="black" points="342.29,-151.77 349.67,-144.16 339.16,-145.51 342.29,-151.77"/>
</g>
<!-- N4 -->
<g id="node5" class="node">
<title>N4</title>
<polygon fill="none" stroke="black" points="73,-36 19,-36 19,0 73,0 73,-36"/>
<text text-anchor="middle" x="46" y="-14.3" font-family="Times,serif" font-size="14.00">x</text>
</g>
<!-- N3&#45;&gt;N4 -->
<g id="edge2" class="edge">
<title>N3&#45;&gt;N4</title>
<path fill="none" stroke="black" d="M151.76,-107.97C130.85,-90.38 98.04,-62.78 74.51,-42.99"/>
<polygon fill="black" stroke="black" points="76.52,-40.1 66.61,-36.34 72.01,-45.46 76.52,-40.1"/>
</g>
<!-- N5 -->
<g id="node6" class="node">
<title>N5</title>
<polygon fill="none" stroke="black" points="199,-36 145,-36 145,0 199,0 199,-36"/>
<text text-anchor="middle" x="172" y="-14.3" font-family="Times,serif" font-size="14.00">y</text>
</g>
<!-- N3&#45;&gt;N5 -->
<g id="edge3" class="edge">
<title>N3&#45;&gt;N5</title>
<path fill="none" stroke="black" d="M172,-107.97C172,-91.38 172,-65.88 172,-46.43"/>
<polygon fill="black" stroke="black" points="175.5,-46.34 172,-36.34 168.5,-46.34 175.5,-46.34"/>
</g>
<!-- N7 -->
<g id="node8" class="node">
<title>N7</title>
<polygon fill="none" stroke="black" points="325,-36 271,-36 271,0 325,0 325,-36"/>
<text text-anchor="middle" x="298" y="-14.3" font-family="Times,serif" font-size="14.00">node</text>
</g>
<!-- N6&#45;&gt;N7 -->
<g id="edge5" class="edge">
<title>N6&#45;&gt;N7</title>
<path fill="none" stroke="black" d="M370.18,-107.97C356.22,-90.76 334.49,-63.98 318.52,-44.29"/>
<polygon fill="black" stroke="black" points="321.09,-41.9 312.07,-36.34 315.65,-46.31 321.09,-41.9"/>
</g>
<!-- N8 -->
<g id="node9" class="node">
<title>N8</title>
<polygon fill="none" stroke="black" points="451,-36 397,-36 397,0 451,0 451,-36"/>
<text text-anchor="middle" x="424" y="-14.3" font-family="Times,serif" font-size="14.00">left</text>
</g>
<!-- N6&#45;&gt;N8 -->
<g id="edge6" class="edge">
<title>N6&#45;&gt;N8</title>
<path fill="none" stroke="black" d="M390.43,-107.97C396.75,-91.22 406.49,-65.41 413.85,-45.89"/>
<polygon fill="black" stroke="black" points="417.2,-46.93 417.46,-36.34 410.65,-44.46 417.2,-46.93"/>
</g>
<!-- N9 -->
<g id="node10" class="node">
<title>N9</title>
<polygon fill="none" stroke="black" points="577,-36 523,-36 523,0 577,0 577,-36"/>
<text text-anchor="middle" x="550" y="-14.3" font-family="Times,serif" font-size="14.00">right</text>
</g>
<!-- N6&#45;&gt;N9 -->
<g id="edge7" class="edge">
<title>N6&#45;&gt;N9</title>
<path fill="none" stroke="black" d="M410.67,-107.97C438.78,-90.02 483.21,-61.65 514.33,-41.78"/>
<polygon fill="black" stroke="black" points="516.58,-44.5 523.12,-36.16 512.81,-38.6 516.58,-44.5"/>
</g>
</g>
</svg>
